<mxfile host="65bd71144e">
    <diagram id="aqvJ0Lp0cki1c_JosTr-" name="第 1 页">
        <mxGraphModel dx="4907" dy="1774" grid="1" gridSize="10" guides="1" tooltips="1" connect="1" arrows="1" fold="1" page="1" pageScale="1" pageWidth="827" pageHeight="1169" math="0" shadow="0">
            <root>
                <mxCell id="0"/>
                <mxCell id="1" parent="0"/>
                <mxCell id="2" style="edgeStyle=none;html=1;entryX=-0.004;entryY=0.518;entryDx=0;entryDy=0;entryPerimeter=0;" edge="1" parent="1" source="3" target="21">
                    <mxGeometry relative="1" as="geometry"/>
                </mxCell>
                <mxCell id="3" value="&lt;div style=&quot;color: rgb(218, 218, 218); background-color: rgb(30, 30, 30); font-family: &amp;quot;Droid Sans Mono&amp;quot;, &amp;quot;monospace&amp;quot;, monospace; font-size: 14px; line-height: 19px;&quot;&gt;&lt;span style=&quot;color: #569cd6;&quot;&gt;defm&lt;/span&gt; &lt;span style=&quot;color: #9cdcfe;&quot;&gt;V_XNOR_B32&lt;/span&gt; : &lt;span style=&quot;color: #4ec9b0;&quot;&gt;VOP2Inst&lt;/span&gt; &amp;lt;&lt;span style=&quot;color: #e8c9bb;&quot;&gt;&quot;&lt;/span&gt;&lt;span style=&quot;color: #ce9178;&quot;&gt;v_xnor_b32&lt;/span&gt;&lt;span style=&quot;color: #e8c9bb;&quot;&gt;&quot;&lt;/span&gt;, &lt;span style=&quot;color: #9cdcfe;&quot;&gt;VOP_I32_I32_I32&lt;/span&gt;, &lt;span style=&quot;color: #9cdcfe;&quot;&gt;xnor&lt;/span&gt;&amp;gt;;&lt;/div&gt;&lt;blockquote style=&quot;margin: 0 0 0 40px; border: none; padding: 0px;&quot;&gt;&lt;div style=&quot;color: rgb(218, 218, 218); background-color: rgb(30, 30, 30); font-family: &amp;quot;Droid Sans Mono&amp;quot;, &amp;quot;monospace&amp;quot;, monospace; font-size: 14px; line-height: 19px;&quot;&gt;&lt;div style=&quot;line-height: 19px;&quot;&gt;&lt;span style=&quot;color: #9cdcfe;&quot;&gt;isReMaterializable&lt;/span&gt; = &lt;span style=&quot;color: #b5cea8;&quot;&gt;1&lt;/span&gt;&lt;/div&gt;&lt;/div&gt;&lt;div style=&quot;color: rgb(218, 218, 218); background-color: rgb(30, 30, 30); font-family: &amp;quot;Droid Sans Mono&amp;quot;, &amp;quot;monospace&amp;quot;, monospace; font-size: 14px; line-height: 19px;&quot;&gt;&lt;div style=&quot;line-height: 19px;&quot;&gt;&lt;div style=&quot;line-height: 19px;&quot;&gt;&lt;span style=&quot;color: #9cdcfe;&quot;&gt;SubtargetPredicate&lt;/span&gt; = &lt;span style=&quot;color: #9cdcfe;&quot;&gt;HasDLInsts&lt;/span&gt;&lt;/div&gt;&lt;/div&gt;&lt;/div&gt;&lt;/blockquote&gt;" style="text;html=1;align=left;verticalAlign=middle;resizable=0;points=[];autosize=1;strokeColor=none;fillColor=none;" vertex="1" parent="1">
                    <mxGeometry x="-530" y="675" width="570" height="70" as="geometry"/>
                </mxCell>
                <mxCell id="4" value="&lt;div style=&quot;color: rgb(218, 218, 218); background-color: rgb(30, 30, 30); font-family: &amp;quot;Droid Sans Mono&amp;quot;, &amp;quot;monospace&amp;quot;, monospace; font-size: 14px; line-height: 19px;&quot;&gt;&lt;div&gt;&lt;div&gt;&lt;span style=&quot;color: rgb(87, 166, 74);&quot;&gt;// opName = &quot;v_xnor_b32&quot;&lt;/span&gt;&lt;/div&gt;&lt;div&gt;&lt;span style=&quot;color: rgb(87, 166, 74);&quot;&gt;// P = VOP_I32_I32_I32&lt;/span&gt;&lt;/div&gt;&lt;div&gt;&lt;span style=&quot;color: rgb(87, 166, 74);&quot;&gt;// node = xnor&lt;/span&gt;&lt;/div&gt;&lt;/div&gt;&lt;div&gt;&lt;span style=&quot;color: #569cd6;&quot;&gt;multiclass&lt;/span&gt; &lt;span style=&quot;color: #4ec9b0;&quot;&gt;VOP2Inst_sdwa&lt;/span&gt;&amp;lt;&lt;span style=&quot;color: #4ec9b0;&quot;&gt;string&lt;/span&gt; &lt;span style=&quot;color: #9cdcfe;&quot;&gt;opName&lt;/span&gt;,&amp;nbsp;&lt;span style=&quot;color: rgb(78, 201, 176);&quot;&gt;VOPProfile &lt;/span&gt;&lt;span style=&quot;color: rgb(156, 220, 254);&quot;&gt;P&lt;/span&gt;,&amp;nbsp;&lt;span style=&quot;color: rgb(78, 201, 176);&quot;&gt;bit&lt;/span&gt; &lt;span style=&quot;color: rgb(156, 220, 254);&quot;&gt;GFX9Renamed&lt;/span&gt; = &lt;span style=&quot;color: rgb(181, 206, 168);&quot;&gt;0&lt;/span&gt;&amp;gt; {&lt;/div&gt;&lt;/div&gt;&lt;blockquote style=&quot;margin: 0 0 0 40px; border: none; padding: 0px;&quot;&gt;&lt;div style=&quot;color: rgb(218, 218, 218); background-color: rgb(30, 30, 30); font-family: &amp;quot;Droid Sans Mono&amp;quot;, &amp;quot;monospace&amp;quot;, monospace; font-size: 14px; line-height: 19px;&quot;&gt;&lt;div&gt;&lt;span style=&quot;color: #569cd6;&quot;&gt;let&lt;/span&gt; &lt;span style=&quot;color: #9cdcfe;&quot;&gt;renamedInGFX9&lt;/span&gt; = &lt;span style=&quot;color: #9cdcfe;&quot;&gt;GFX9Renamed&lt;/span&gt; &lt;span style=&quot;color: #569cd6;&quot;&gt;in&lt;/span&gt; {&lt;/div&gt;&lt;/div&gt;&lt;/blockquote&gt;&lt;blockquote style=&quot;margin: 0 0 0 40px; border: none; padding: 0px;&quot;&gt;&lt;blockquote style=&quot;margin: 0 0 0 40px; border: none; padding: 0px;&quot;&gt;&lt;div style=&quot;color: rgb(218, 218, 218); background-color: rgb(30, 30, 30); font-family: &amp;quot;Droid Sans Mono&amp;quot;, &amp;quot;monospace&amp;quot;, monospace; font-size: 14px; line-height: 19px;&quot;&gt;&lt;div&gt;&lt;span style=&quot;color: #569cd6;&quot;&gt;if&lt;/span&gt; &lt;span style=&quot;color: #9cdcfe;&quot;&gt;P&lt;/span&gt;.&lt;span style=&quot;color: #9cdcfe;&quot;&gt;HasExtSDWA&lt;/span&gt; &lt;span style=&quot;color: #569cd6;&quot;&gt;then&lt;/span&gt;&lt;/div&gt;&lt;/div&gt;&lt;/blockquote&gt;&lt;/blockquote&gt;&lt;blockquote style=&quot;margin: 0 0 0 40px; border: none; padding: 0px;&quot;&gt;&lt;blockquote style=&quot;margin: 0 0 0 40px; border: none; padding: 0px;&quot;&gt;&lt;blockquote style=&quot;margin: 0 0 0 40px; border: none; padding: 0px;&quot;&gt;&lt;div style=&quot;color: rgb(218, 218, 218); background-color: rgb(30, 30, 30); font-family: &amp;quot;Droid Sans Mono&amp;quot;, &amp;quot;monospace&amp;quot;, monospace; font-size: 14px; line-height: 19px;&quot;&gt;&lt;div&gt;&lt;span style=&quot;color: #569cd6;&quot;&gt;def&lt;/span&gt; &lt;span style=&quot;color: #9cdcfe;&quot;&gt;_sdwa&lt;/span&gt; : &lt;span style=&quot;color: #4ec9b0;&quot;&gt;VOP2_SDWA_Pseudo&lt;/span&gt; &amp;lt;&lt;span style=&quot;color: #9cdcfe;&quot;&gt;opName&lt;/span&gt;, &lt;span style=&quot;color: #9cdcfe;&quot;&gt;P&lt;/span&gt;&amp;gt;;&lt;/div&gt;&lt;/div&gt;&lt;/blockquote&gt;&lt;/blockquote&gt;&lt;/blockquote&gt;&lt;blockquote style=&quot;margin: 0 0 0 40px; border: none; padding: 0px;&quot;&gt;&lt;div style=&quot;color: rgb(218, 218, 218); background-color: rgb(30, 30, 30); font-family: &amp;quot;Droid Sans Mono&amp;quot;, &amp;quot;monospace&amp;quot;, monospace; font-size: 14px; line-height: 19px;&quot;&gt;&lt;div&gt;} &lt;span style=&quot;color: #57a64a;&quot;&gt;// End renamedInGFX9 = GFX9Renamed&lt;/span&gt;&lt;/div&gt;&lt;/div&gt;&lt;/blockquote&gt;&lt;div style=&quot;color: rgb(218, 218, 218); background-color: rgb(30, 30, 30); font-family: &amp;quot;Droid Sans Mono&amp;quot;, &amp;quot;monospace&amp;quot;, monospace; font-size: 14px; line-height: 19px;&quot;&gt;&lt;div&gt;}&lt;/div&gt;&lt;/div&gt;" style="text;html=1;align=left;verticalAlign=middle;resizable=0;points=[];autosize=1;strokeColor=none;fillColor=none;" vertex="1" parent="1">
                    <mxGeometry x="414" y="-270" width="660" height="180" as="geometry"/>
                </mxCell>
                <mxCell id="5" style="edgeStyle=none;html=1;entryX=-0.004;entryY=0.214;entryDx=0;entryDy=0;entryPerimeter=0;exitX=1;exitY=0.583;exitDx=0;exitDy=0;exitPerimeter=0;" edge="1" parent="1" source="6" target="3">
                    <mxGeometry relative="1" as="geometry"/>
                </mxCell>
                <mxCell id="6" value="&lt;div style=&quot;color: rgb(218, 218, 218); background-color: rgb(30, 30, 30); font-family: &amp;quot;Droid Sans Mono&amp;quot;, &amp;quot;monospace&amp;quot;, monospace; font-size: 14px; line-height: 19px;&quot;&gt;&lt;span style=&quot;color: #569cd6;&quot;&gt;def&lt;/span&gt; &lt;span style=&quot;color: #9cdcfe;&quot;&gt;VOP_I32_I32_I32&lt;/span&gt; : &lt;span style=&quot;color: #4ec9b0;&quot;&gt;VOPProfile&lt;/span&gt; &amp;lt;[&lt;span style=&quot;color: #9cdcfe;&quot;&gt;i32&lt;/span&gt;, &lt;span style=&quot;color: #9cdcfe;&quot;&gt;i32&lt;/span&gt;, &lt;span style=&quot;color: #9cdcfe;&quot;&gt;i32&lt;/span&gt;, &lt;span style=&quot;color: #9cdcfe;&quot;&gt;untyped&lt;/span&gt;]&amp;gt;;&lt;/div&gt;" style="text;html=1;align=center;verticalAlign=middle;resizable=0;points=[];autosize=1;strokeColor=none;fillColor=none;" vertex="1" parent="1">
                    <mxGeometry x="-1410" y="675" width="530" height="30" as="geometry"/>
                </mxCell>
                <mxCell id="7" style="edgeStyle=none;html=1;entryX=0.487;entryY=0.067;entryDx=0;entryDy=0;entryPerimeter=0;" edge="1" parent="1" source="8" target="6">
                    <mxGeometry relative="1" as="geometry"/>
                </mxCell>
                <mxCell id="8" value="&lt;div style=&quot;color: rgb(218, 218, 218); background-color: rgb(30, 30, 30); font-family: &amp;quot;Droid Sans Mono&amp;quot;, &amp;quot;monospace&amp;quot;, monospace; font-size: 14px; line-height: 19px;&quot;&gt;&lt;div&gt;&lt;div style=&quot;line-height: 19px;&quot;&gt;&lt;span style=&quot;color: #57a64a;&quot;&gt;// _ArgVT = [i32, i32, i32, untyped]&lt;/span&gt;&lt;/div&gt;&lt;/div&gt;&lt;div&gt;&lt;span style=&quot;color: #569cd6;&quot;&gt;class&lt;/span&gt; &lt;span style=&quot;color: #4ec9b0;&quot;&gt;VOPProfile&lt;/span&gt; &amp;lt;&lt;span style=&quot;color: #4ec9b0;&quot;&gt;list&lt;/span&gt;&amp;lt;&lt;span style=&quot;color: #4ec9b0;&quot;&gt;ValueType&lt;/span&gt;&amp;gt; &lt;span style=&quot;color: #9cdcfe;&quot;&gt;_ArgVT&lt;/span&gt;, &lt;span style=&quot;color: #4ec9b0;&quot;&gt;bit&lt;/span&gt; &lt;span style=&quot;color: #9cdcfe;&quot;&gt;_EnableClamp&lt;/span&gt; = &lt;span style=&quot;color: #b5cea8;&quot;&gt;0&lt;/span&gt;&amp;gt; {&lt;/div&gt;&lt;/div&gt;&lt;blockquote style=&quot;margin: 0 0 0 40px; border: none; padding: 0px;&quot;&gt;&lt;div style=&quot;color: rgb(218, 218, 218); background-color: rgb(30, 30, 30); font-family: &amp;quot;Droid Sans Mono&amp;quot;, &amp;quot;monospace&amp;quot;, monospace; font-size: 14px; line-height: 19px;&quot;&gt;&lt;div&gt;  ...&lt;/div&gt;&lt;div&gt;&lt;div style=&quot;line-height: 19px;&quot;&gt;&lt;span style=&quot;color: #569cd6;&quot;&gt;field&lt;/span&gt; &lt;span style=&quot;color: #4ec9b0;&quot;&gt;bit&lt;/span&gt; &lt;span style=&quot;color: #9cdcfe;&quot;&gt;IsTrue16&lt;/span&gt; = &lt;span style=&quot;color: #b5cea8;&quot;&gt;0&lt;/span&gt;&lt;/div&gt;&lt;/div&gt;&lt;/div&gt;&lt;div style=&quot;color: rgb(218, 218, 218); background-color: rgb(30, 30, 30); font-family: &amp;quot;Droid Sans Mono&amp;quot;, &amp;quot;monospace&amp;quot;, monospace; font-size: 14px; line-height: 19px;&quot;&gt;&lt;div&gt;&lt;span style=&quot;color: #569cd6;&quot;&gt;field&lt;/span&gt; &lt;span style=&quot;color: #4ec9b0;&quot;&gt;ValueType &lt;/span&gt;&lt;span style=&quot;color: #9cdcfe;&quot;&gt;DstVT&lt;/span&gt; = &lt;span style=&quot;color: #9cdcfe;&quot;&gt;ArgVT&lt;/span&gt;[&lt;span style=&quot;color: #b5cea8;&quot;&gt;0&lt;/span&gt;];&lt;/div&gt;&lt;/div&gt;&lt;div style=&quot;color: rgb(218, 218, 218); background-color: rgb(30, 30, 30); font-family: &amp;quot;Droid Sans Mono&amp;quot;, &amp;quot;monospace&amp;quot;, monospace; font-size: 14px; line-height: 19px;&quot;&gt;&lt;div&gt;&lt;span style=&quot;color: #569cd6;&quot;&gt;field&lt;/span&gt; &lt;span style=&quot;color: #4ec9b0;&quot;&gt;ValueType &lt;/span&gt;&lt;span style=&quot;color: #9cdcfe;&quot;&gt;Src0VT&lt;/span&gt; = &lt;span style=&quot;color: #9cdcfe;&quot;&gt;ArgVT&lt;/span&gt;[&lt;span style=&quot;color: #b5cea8;&quot;&gt;1&lt;/span&gt;];&lt;/div&gt;&lt;/div&gt;&lt;div style=&quot;color: rgb(218, 218, 218); background-color: rgb(30, 30, 30); font-family: &amp;quot;Droid Sans Mono&amp;quot;, &amp;quot;monospace&amp;quot;, monospace; font-size: 14px; line-height: 19px;&quot;&gt;&lt;div&gt;&lt;span style=&quot;color: #569cd6;&quot;&gt;field&lt;/span&gt; &lt;span style=&quot;color: #4ec9b0;&quot;&gt;ValueType &lt;/span&gt;&lt;span style=&quot;color: #9cdcfe;&quot;&gt;Src1VT&lt;/span&gt; = &lt;span style=&quot;color: #9cdcfe;&quot;&gt;ArgVT&lt;/span&gt;[&lt;span style=&quot;color: #b5cea8;&quot;&gt;2&lt;/span&gt;];&lt;/div&gt;&lt;div&gt;&lt;div style=&quot;line-height: 19px;&quot;&gt;&lt;span style=&quot;color: #569cd6;&quot;&gt;field&lt;/span&gt; &lt;span style=&quot;color: #4ec9b0;&quot;&gt;ValueType &lt;/span&gt;&lt;span style=&quot;color: #9cdcfe;&quot;&gt;Src2VT&lt;/span&gt; = &lt;span style=&quot;color: #9cdcfe;&quot;&gt;ArgVT&lt;/span&gt;[&lt;span style=&quot;color: #b5cea8;&quot;&gt;3&lt;/span&gt;];&lt;/div&gt;&lt;/div&gt;&lt;/div&gt;&lt;div style=&quot;color: rgb(218, 218, 218); background-color: rgb(30, 30, 30); font-family: &amp;quot;Droid Sans Mono&amp;quot;, &amp;quot;monospace&amp;quot;, monospace; font-size: 14px; line-height: 19px;&quot;&gt;&lt;div&gt;  ...&lt;/div&gt;&lt;div&gt;&lt;div style=&quot;line-height: 19px;&quot;&gt;&lt;div&gt;&lt;span style=&quot;color: #57a64a;&quot;&gt;// Src0RC32 = VSrc_b32&lt;/span&gt;&lt;/div&gt;&lt;div&gt;    &lt;span style=&quot;color: #569cd6;&quot;&gt;field&lt;/span&gt; &lt;span style=&quot;color: #4ec9b0;&quot;&gt;RegisterOperand &lt;/span&gt;&lt;span style=&quot;color: #9cdcfe;&quot;&gt;Src0RC32&lt;/span&gt; = &lt;span style=&quot;color: #4ec9b0;&quot;&gt;getVOPSrc0ForVT&lt;/span&gt;&amp;lt;&lt;span style=&quot;color: #9cdcfe;&quot;&gt;Src0VT&lt;/span&gt;, &lt;span style=&quot;color: #9cdcfe;&quot;&gt;IsTrue16&lt;/span&gt;&amp;gt;.&lt;span style=&quot;color: #9cdcfe;&quot;&gt;ret&lt;/span&gt;;&lt;/div&gt;&lt;div&gt;    &lt;span style=&quot;color: #57a64a;&quot;&gt;// Src0RC32 = VSrc_b32&lt;/span&gt;&lt;/div&gt;&lt;div&gt;    &lt;span style=&quot;color: #569cd6;&quot;&gt;field&lt;/span&gt; &lt;span style=&quot;color: #4ec9b0;&quot;&gt;RegisterOperand &lt;/span&gt;&lt;span style=&quot;color: #9cdcfe;&quot;&gt;Src1RC32&lt;/span&gt; = &lt;span style=&quot;color: #4ec9b0;&quot;&gt;RegisterOperand&lt;/span&gt;&amp;lt;&lt;span style=&quot;color: #4ec9b0;&quot;&gt;getVregSrcForVT&lt;/span&gt;&amp;lt;&lt;span style=&quot;color: #9cdcfe;&quot;&gt;Src1VT&lt;/span&gt;&amp;gt;.&lt;span style=&quot;color: #9cdcfe;&quot;&gt;ret&lt;/span&gt;&amp;gt;;&lt;/div&gt;&lt;div&gt;&lt;div style=&quot;line-height: 19px;&quot;&gt;&lt;div&gt;    &lt;span style=&quot;color: #57a64a;&quot;&gt;// DstVT = i32, thus DstRC = VOPDstOperand&amp;lt;VGPR_32&amp;gt;&lt;/span&gt;&lt;/div&gt;&lt;div&gt;    &lt;span style=&quot;color: #569cd6;&quot;&gt;field&lt;/span&gt; &lt;span style=&quot;color: #4ec9b0;&quot;&gt;RegisterOperand &lt;/span&gt;&lt;span style=&quot;color: #9cdcfe;&quot;&gt;DstRC&lt;/span&gt; = &lt;span style=&quot;color: #4ec9b0;&quot;&gt;getVALUDstForVT&lt;/span&gt;&amp;lt;&lt;span style=&quot;color: #9cdcfe;&quot;&gt;DstVT&lt;/span&gt;&amp;gt;.&lt;span style=&quot;color: #9cdcfe;&quot;&gt;ret&lt;/span&gt;;&lt;/div&gt;&lt;/div&gt;&lt;/div&gt;&lt;div&gt;...&lt;/div&gt;&lt;/div&gt;&lt;/div&gt;&lt;/div&gt;&lt;div style=&quot;color: rgb(218, 218, 218); background-color: rgb(30, 30, 30); font-family: &amp;quot;Droid Sans Mono&amp;quot;, &amp;quot;monospace&amp;quot;, monospace; font-size: 14px; line-height: 19px;&quot;&gt;&lt;div&gt;&lt;span style=&quot;color: #57a64a;&quot;&gt;// Src2VT is untyped, thus NumSrcArgs = 2&lt;/span&gt;&lt;/div&gt;&lt;/div&gt;&lt;div style=&quot;color: rgb(218, 218, 218); background-color: rgb(30, 30, 30); font-family: &amp;quot;Droid Sans Mono&amp;quot;, &amp;quot;monospace&amp;quot;, monospace; font-size: 14px; line-height: 19px;&quot;&gt;&lt;div&gt;&lt;span style=&quot;color: #569cd6;&quot;&gt;field&lt;/span&gt; &lt;span style=&quot;color: #4ec9b0;&quot;&gt;int&lt;/span&gt; &lt;span style=&quot;color: #9cdcfe;&quot;&gt;NumSrcArgs&lt;/span&gt; = &lt;span style=&quot;color: #4ec9b0;&quot;&gt;getNumSrcArgs&lt;/span&gt;&amp;lt;&lt;span style=&quot;color: #9cdcfe;&quot;&gt;Src0VT&lt;/span&gt;, &lt;span style=&quot;color: #9cdcfe;&quot;&gt;Src1VT&lt;/span&gt;, &lt;span style=&quot;color: #9cdcfe;&quot;&gt;Src2VT&lt;/span&gt;&amp;gt;.&lt;span style=&quot;color: #9cdcfe;&quot;&gt;ret&lt;/span&gt;;&lt;/div&gt;&lt;/div&gt;&lt;div style=&quot;color: rgb(218, 218, 218); background-color: rgb(30, 30, 30); font-family: &amp;quot;Droid Sans Mono&amp;quot;, &amp;quot;monospace&amp;quot;, monospace; font-size: 14px; line-height: 19px;&quot;&gt;&lt;div&gt;  ...&lt;/div&gt;&lt;/div&gt;&lt;div style=&quot;color: rgb(218, 218, 218); background-color: rgb(30, 30, 30); font-family: &amp;quot;Droid Sans Mono&amp;quot;, &amp;quot;monospace&amp;quot;, monospace; font-size: 14px; line-height: 19px;&quot;&gt;&lt;div&gt;&lt;span style=&quot;color: #57a64a;&quot;&gt;// NumSrcArgs == 2, non of the input is 64bit, HasExtSDWA = 1&amp;nbsp;&lt;/span&gt;&lt;/div&gt;&lt;/div&gt;&lt;div style=&quot;color: rgb(218, 218, 218); background-color: rgb(30, 30, 30); font-family: &amp;quot;Droid Sans Mono&amp;quot;, &amp;quot;monospace&amp;quot;, monospace; font-size: 14px; line-height: 19px;&quot;&gt;&lt;div&gt;&lt;span style=&quot;color: #569cd6;&quot;&gt;field&lt;/span&gt; &lt;span style=&quot;color: #4ec9b0;&quot;&gt;bit&lt;/span&gt; &lt;span style=&quot;color: #9cdcfe;&quot;&gt;HasExtSDWA&lt;/span&gt; = &lt;span style=&quot;color: #4ec9b0;&quot;&gt;getHasSDWA&lt;/span&gt;&amp;lt;&lt;span style=&quot;color: #9cdcfe;&quot;&gt;NumSrcArgs&lt;/span&gt;, &lt;span style=&quot;color: #9cdcfe;&quot;&gt;DstVT&lt;/span&gt;, &lt;span style=&quot;color: #9cdcfe;&quot;&gt;Src0VT&lt;/span&gt;, &lt;span style=&quot;color: #9cdcfe;&quot;&gt;Src1VT&lt;/span&gt;&amp;gt;.&lt;span style=&quot;color: #9cdcfe;&quot;&gt;ret&lt;/span&gt;;&lt;/div&gt;&lt;div&gt;...&lt;/div&gt;&lt;div&gt;&lt;div style=&quot;line-height: 19px;&quot;&gt;&lt;div style=&quot;line-height: 19px;&quot;&gt;&lt;div&gt;    &lt;span style=&quot;color: #57a64a;&quot;&gt;// length of i32 is 32, untyped is 8, to none of then are 64, thus HasExtVOP3DPP = 1&lt;/span&gt;&lt;/div&gt;&lt;div&gt;    &lt;span style=&quot;color: #569cd6;&quot;&gt;field&lt;/span&gt; &lt;span style=&quot;color: #4ec9b0;&quot;&gt;bit&lt;/span&gt; &lt;span style=&quot;color: #9cdcfe;&quot;&gt;HasExtVOP3DPP&lt;/span&gt; = &lt;span style=&quot;color: #4ec9b0;&quot;&gt;getHasVOP3DPP&lt;/span&gt;&amp;lt;&lt;span style=&quot;color: #9cdcfe;&quot;&gt;DstVT&lt;/span&gt;, &lt;span style=&quot;color: #9cdcfe;&quot;&gt;Src0VT&lt;/span&gt;, &lt;span style=&quot;color: #9cdcfe;&quot;&gt;Src1VT&lt;/span&gt;, &lt;span style=&quot;color: #9cdcfe;&quot;&gt;Src2VT&lt;/span&gt;&amp;gt;.&lt;span style=&quot;color: #9cdcfe;&quot;&gt;ret&lt;/span&gt;;&lt;/div&gt;&lt;div&gt;    &lt;span style=&quot;color: #57a64a;&quot;&gt;// HasExtVOP3DPP = 1 then HasExtDPP = 1&lt;/span&gt;&lt;/div&gt;&lt;div&gt;    &lt;span style=&quot;color: #569cd6;&quot;&gt;field&lt;/span&gt; &lt;span style=&quot;color: #4ec9b0;&quot;&gt;bit&lt;/span&gt; &lt;span style=&quot;color: #9cdcfe;&quot;&gt;HasExtDPP&lt;/span&gt; = &lt;span style=&quot;color: #dcdcaa;&quot;&gt;!if&lt;/span&gt;(&lt;span style=&quot;color: #dcdcaa;&quot;&gt;!or&lt;/span&gt;(&lt;span style=&quot;color: #4ec9b0;&quot;&gt;getHasDPP&lt;/span&gt;&amp;lt;&lt;span style=&quot;color: #9cdcfe;&quot;&gt;NumSrcArgs&lt;/span&gt;&amp;gt;.&lt;span style=&quot;color: #9cdcfe;&quot;&gt;ret&lt;/span&gt;, &lt;span style=&quot;color: #9cdcfe;&quot;&gt;HasExtVOP3DPP&lt;/span&gt;), &lt;span style=&quot;color: #b5cea8;&quot;&gt;1&lt;/span&gt;, &lt;span style=&quot;color: #b5cea8;&quot;&gt;0&lt;/span&gt;);&lt;/div&gt;&lt;div&gt;...&lt;/div&gt;&lt;div&gt;&lt;div style=&quot;line-height: 19px;&quot;&gt;&lt;div&gt;&lt;span style=&quot;color: #57a64a;&quot;&gt;// PatGenMode.NoPattern = 0, thus NeedPatGen = 0&lt;/span&gt;&lt;/div&gt;&lt;div&gt;    &lt;span style=&quot;color: #569cd6;&quot;&gt;field&lt;/span&gt; &lt;span style=&quot;color: #4ec9b0;&quot;&gt;int&lt;/span&gt; &lt;span style=&quot;color: #9cdcfe;&quot;&gt;NeedPatGen&lt;/span&gt; = &lt;span style=&quot;color: #9cdcfe;&quot;&gt;PatGenMode&lt;/span&gt;.&lt;span style=&quot;color: #9cdcfe;&quot;&gt;NoPattern&lt;/span&gt;;&lt;/div&gt;&lt;div&gt;&lt;div style=&quot;line-height: 19px;&quot;&gt;&lt;div&gt;    ...&lt;/div&gt;&lt;div&gt;    &lt;span style=&quot;color: #57a64a;&quot;&gt;// NumSrcArgs == 2, thus Ins32 = (ins&amp;nbsp;&lt;/span&gt;&lt;span style=&quot;color: rgb(87, 166, 74);&quot;&gt;VSrc_b32&lt;/span&gt;&lt;span style=&quot;color: #57a64a;&quot;&gt;:$src0,&amp;nbsp;&lt;/span&gt;&lt;span style=&quot;color: rgb(87, 166, 74);&quot;&gt;VSrc_b32&lt;/span&gt;&lt;span style=&quot;color: #57a64a;&quot;&gt;:$src1)&lt;/span&gt;&lt;/div&gt;&lt;div&gt;    &lt;span style=&quot;color: #569cd6;&quot;&gt;field&lt;/span&gt; &lt;span style=&quot;color: #4ec9b0;&quot;&gt;dag&lt;/span&gt; &lt;span style=&quot;color: #9cdcfe;&quot;&gt;Ins32&lt;/span&gt; = &lt;span style=&quot;color: #4ec9b0;&quot;&gt;getIns32&lt;/span&gt;&amp;lt;&lt;span style=&quot;color: #9cdcfe;&quot;&gt;Src0RC32&lt;/span&gt;, &lt;span style=&quot;color: #9cdcfe;&quot;&gt;Src1RC32&lt;/span&gt;, &lt;span style=&quot;color: #9cdcfe;&quot;&gt;NumSrcArgs&lt;/span&gt;&amp;gt;.&lt;span style=&quot;color: #9cdcfe;&quot;&gt;ret&lt;/span&gt;;&lt;/div&gt;&lt;div&gt;&lt;div style=&quot;line-height: 19px;&quot;&gt;&lt;div&gt;    ...&lt;/div&gt;&lt;div&gt;    &lt;span style=&quot;color: #57a64a;&quot;&gt;// DstVT == i32, thus HasDst = 1&lt;/span&gt;&lt;/div&gt;&lt;div&gt;    &lt;span style=&quot;color: #569cd6;&quot;&gt;field&lt;/span&gt; &lt;span style=&quot;color: #4ec9b0;&quot;&gt;bit&lt;/span&gt; &lt;span style=&quot;color: #9cdcfe;&quot;&gt;HasDst&lt;/span&gt; = &lt;span style=&quot;color: #dcdcaa;&quot;&gt;!ne&lt;/span&gt;(&lt;span style=&quot;color: #9cdcfe;&quot;&gt;DstVT&lt;/span&gt;.&lt;span style=&quot;color: #9cdcfe;&quot;&gt;Value&lt;/span&gt;, &lt;span style=&quot;color: #9cdcfe;&quot;&gt;untyped&lt;/span&gt;.&lt;span style=&quot;color: #9cdcfe;&quot;&gt;Value&lt;/span&gt;);&lt;/div&gt;&lt;div&gt;    &lt;span style=&quot;color: #57a64a;&quot;&gt;// HasDst = 1, thus Outs = (outs DstRC:$vdst)&lt;/span&gt;&lt;/div&gt;&lt;div&gt;    &lt;span style=&quot;color: #569cd6;&quot;&gt;field&lt;/span&gt; &lt;span style=&quot;color: #4ec9b0;&quot;&gt;dag&lt;/span&gt; &lt;span style=&quot;color: #9cdcfe;&quot;&gt;Outs&lt;/span&gt; = &lt;span style=&quot;color: #dcdcaa;&quot;&gt;!if&lt;/span&gt;(&lt;span style=&quot;color: #9cdcfe;&quot;&gt;HasDst&lt;/span&gt;,(&lt;span style=&quot;color: #9cdcfe;&quot;&gt;outs&lt;/span&gt; &lt;span style=&quot;color: #9cdcfe;&quot;&gt;DstRC&lt;/span&gt;:&lt;span style=&quot;color: #b5cea8;&quot;&gt;$vdst&lt;/span&gt;),(&lt;span style=&quot;color: #9cdcfe;&quot;&gt;outs&lt;/span&gt;));&lt;/div&gt;&lt;div&gt;&lt;span style=&quot;color: rgb(87, 166, 74);&quot;&gt;// Outs32 = (outs&amp;nbsp;&lt;/span&gt;&lt;span style=&quot;color: rgb(87, 166, 74);&quot;&gt;VOPDstOperand&amp;lt;VGPR_32&amp;gt;&lt;/span&gt;&lt;span style=&quot;color: rgb(87, 166, 74);&quot;&gt;:$vdst)&lt;/span&gt;&lt;br&gt;&lt;/div&gt;&lt;div&gt;    &lt;span style=&quot;color: #569cd6;&quot;&gt;field&lt;/span&gt; &lt;span style=&quot;color: #4ec9b0;&quot;&gt;dag&lt;/span&gt; &lt;span style=&quot;color: #9cdcfe;&quot;&gt;Outs32&lt;/span&gt; = &lt;span style=&quot;color: #9cdcfe;&quot;&gt;Outs&lt;/span&gt;;&lt;/div&gt;&lt;/div&gt;&lt;/div&gt;&lt;/div&gt;&lt;/div&gt;&lt;/div&gt;&lt;/div&gt;&lt;/div&gt;&lt;/div&gt;&lt;/div&gt;&lt;/div&gt;&lt;/blockquote&gt;&lt;div style=&quot;color: rgb(218, 218, 218); background-color: rgb(30, 30, 30); font-family: &amp;quot;Droid Sans Mono&amp;quot;, &amp;quot;monospace&amp;quot;, monospace; font-size: 14px; line-height: 19px;&quot;&gt;&lt;div&gt;}&lt;/div&gt;&lt;/div&gt;" style="text;html=1;align=left;verticalAlign=middle;resizable=0;points=[];autosize=1;strokeColor=none;fillColor=none;" vertex="1" parent="1">
                    <mxGeometry x="-1540" y="-185" width="770" height="770" as="geometry"/>
                </mxCell>
                <mxCell id="9" style="edgeStyle=none;html=1;entryX=-0.005;entryY=0.5;entryDx=0;entryDy=0;entryPerimeter=0;" edge="1" parent="1" source="10" target="3">
                    <mxGeometry relative="1" as="geometry"/>
                </mxCell>
                <mxCell id="10" value="&lt;div style=&quot;color: rgb(218, 218, 218); background-color: rgb(30, 30, 30); font-family: &amp;quot;Droid Sans Mono&amp;quot;, &amp;quot;monospace&amp;quot;, monospace; font-size: 14px; line-height: 19px;&quot;&gt;&lt;div&gt;&lt;span style=&quot;color: #569cd6;&quot;&gt;def&lt;/span&gt; &lt;span style=&quot;color: #9cdcfe;&quot;&gt;xnor&lt;/span&gt; : &lt;span style=&quot;color: #4ec9b0;&quot;&gt;PatFrag&lt;/span&gt; &amp;lt;&lt;/div&gt;&lt;/div&gt;&lt;blockquote style=&quot;margin: 0 0 0 40px; border: none; padding: 0px;&quot;&gt;&lt;div style=&quot;color: rgb(218, 218, 218); background-color: rgb(30, 30, 30); font-family: &amp;quot;Droid Sans Mono&amp;quot;, &amp;quot;monospace&amp;quot;, monospace; font-size: 14px; line-height: 19px;&quot;&gt;&lt;div&gt;  (&lt;span style=&quot;color: #9cdcfe;&quot;&gt;ops&lt;/span&gt; &lt;span style=&quot;color: #9cdcfe;&quot;&gt;node&lt;/span&gt;:&lt;span style=&quot;color: #b5cea8;&quot;&gt;$src0&lt;/span&gt;, &lt;span style=&quot;color: #9cdcfe;&quot;&gt;node&lt;/span&gt;:&lt;span style=&quot;color: #b5cea8;&quot;&gt;$src1&lt;/span&gt;),&lt;/div&gt;&lt;/div&gt;&lt;div style=&quot;color: rgb(218, 218, 218); background-color: rgb(30, 30, 30); font-family: &amp;quot;Droid Sans Mono&amp;quot;, &amp;quot;monospace&amp;quot;, monospace; font-size: 14px; line-height: 19px;&quot;&gt;&lt;div&gt;  (&lt;span style=&quot;color: #9cdcfe;&quot;&gt;not&lt;/span&gt; (&lt;span style=&quot;color: #9cdcfe;&quot;&gt;xor&lt;/span&gt; &lt;span style=&quot;color: #b5cea8;&quot;&gt;$src0&lt;/span&gt;, &lt;span style=&quot;color: #b5cea8;&quot;&gt;$src1&lt;/span&gt;))&lt;/div&gt;&lt;/div&gt;&lt;/blockquote&gt;&lt;div style=&quot;color: rgb(218, 218, 218); background-color: rgb(30, 30, 30); font-family: &amp;quot;Droid Sans Mono&amp;quot;, &amp;quot;monospace&amp;quot;, monospace; font-size: 14px; line-height: 19px;&quot;&gt;&lt;div&gt;&amp;gt;;&lt;/div&gt;&lt;/div&gt;" style="text;html=1;align=left;verticalAlign=middle;resizable=0;points=[];autosize=1;strokeColor=none;fillColor=none;" vertex="1" parent="1">
                    <mxGeometry x="-1280" y="890" width="310" height="90" as="geometry"/>
                </mxCell>
                <mxCell id="11" style="edgeStyle=none;html=1;" edge="1" parent="1" source="12" target="8">
                    <mxGeometry relative="1" as="geometry"/>
                </mxCell>
                <mxCell id="12" value="&lt;div style=&quot;color: rgb(218, 218, 218); background-color: rgb(30, 30, 30); font-family: &amp;quot;Droid Sans Mono&amp;quot;, &amp;quot;monospace&amp;quot;, monospace; font-size: 14px; line-height: 19px;&quot;&gt;&lt;div&gt;&lt;span style=&quot;color: #569cd6;&quot;&gt;class&lt;/span&gt; &lt;span style=&quot;color: #4ec9b0;&quot;&gt;getNumSrcArgs&lt;/span&gt;&amp;lt;&lt;span style=&quot;color: #4ec9b0;&quot;&gt;ValueType &lt;/span&gt;&lt;span style=&quot;color: #9cdcfe;&quot;&gt;Src0&lt;/span&gt;, &lt;span style=&quot;color: #4ec9b0;&quot;&gt;ValueType &lt;/span&gt;&lt;span style=&quot;color: #9cdcfe;&quot;&gt;Src1&lt;/span&gt;, &lt;span style=&quot;color: #4ec9b0;&quot;&gt;ValueType &lt;/span&gt;&lt;span style=&quot;color: #9cdcfe;&quot;&gt;Src2&lt;/span&gt;&amp;gt; {&lt;/div&gt;&lt;/div&gt;&lt;blockquote style=&quot;margin: 0 0 0 40px; border: none; padding: 0px;&quot;&gt;&lt;div style=&quot;color: rgb(218, 218, 218); background-color: rgb(30, 30, 30); font-family: &amp;quot;Droid Sans Mono&amp;quot;, &amp;quot;monospace&amp;quot;, monospace; font-size: 14px; line-height: 19px;&quot;&gt;&lt;div&gt;&lt;span style=&quot;color: #4ec9b0;&quot;&gt;int&lt;/span&gt; &lt;span style=&quot;color: #9cdcfe;&quot;&gt;ret&lt;/span&gt; =&lt;/div&gt;&lt;/div&gt;&lt;/blockquote&gt;&lt;blockquote style=&quot;margin: 0 0 0 40px; border: none; padding: 0px;&quot;&gt;&lt;blockquote style=&quot;margin: 0 0 0 40px; border: none; padding: 0px;&quot;&gt;&lt;div style=&quot;color: rgb(218, 218, 218); background-color: rgb(30, 30, 30); font-family: &amp;quot;Droid Sans Mono&amp;quot;, &amp;quot;monospace&amp;quot;, monospace; font-size: 14px; line-height: 19px;&quot;&gt;&lt;div&gt;&lt;span style=&quot;color: #dcdcaa;&quot;&gt;!if&lt;/span&gt; (&lt;span style=&quot;color: #dcdcaa;&quot;&gt;!eq&lt;/span&gt;(&lt;span style=&quot;color: #9cdcfe;&quot;&gt;Src0&lt;/span&gt;.&lt;span style=&quot;color: #9cdcfe;&quot;&gt;Value&lt;/span&gt;, &lt;span style=&quot;color: #9cdcfe;&quot;&gt;untyped&lt;/span&gt;.&lt;span style=&quot;color: #9cdcfe;&quot;&gt;Value&lt;/span&gt;),      &lt;span style=&quot;color: #b5cea8;&quot;&gt;0&lt;/span&gt;,&lt;/div&gt;&lt;/div&gt;&lt;/blockquote&gt;&lt;/blockquote&gt;&lt;blockquote style=&quot;margin: 0 0 0 40px; border: none; padding: 0px;&quot;&gt;&lt;blockquote style=&quot;margin: 0 0 0 40px; border: none; padding: 0px;&quot;&gt;&lt;blockquote style=&quot;margin: 0 0 0 40px; border: none; padding: 0px;&quot;&gt;&lt;div style=&quot;color: rgb(218, 218, 218); background-color: rgb(30, 30, 30); font-family: &amp;quot;Droid Sans Mono&amp;quot;, &amp;quot;monospace&amp;quot;, monospace; font-size: 14px; line-height: 19px;&quot;&gt;&lt;div&gt;&lt;span style=&quot;color: #dcdcaa;&quot;&gt;!if&lt;/span&gt; (&lt;span style=&quot;color: #dcdcaa;&quot;&gt;!eq&lt;/span&gt;(&lt;span style=&quot;color: #9cdcfe;&quot;&gt;Src1&lt;/span&gt;.&lt;span style=&quot;color: #9cdcfe;&quot;&gt;Value&lt;/span&gt;, &lt;span style=&quot;color: #9cdcfe;&quot;&gt;untyped&lt;/span&gt;.&lt;span style=&quot;color: #9cdcfe;&quot;&gt;Value&lt;/span&gt;),    &lt;span style=&quot;color: #b5cea8;&quot;&gt;1&lt;/span&gt;,   &lt;span style=&quot;color: #57a64a;&quot;&gt;// VOP1&lt;/span&gt;&lt;/div&gt;&lt;/div&gt;&lt;/blockquote&gt;&lt;/blockquote&gt;&lt;/blockquote&gt;&lt;blockquote style=&quot;margin: 0 0 0 40px; border: none; padding: 0px;&quot;&gt;&lt;blockquote style=&quot;margin: 0 0 0 40px; border: none; padding: 0px;&quot;&gt;&lt;blockquote style=&quot;margin: 0 0 0 40px; border: none; padding: 0px;&quot;&gt;&lt;blockquote style=&quot;margin: 0 0 0 40px; border: none; padding: 0px;&quot;&gt;&lt;div style=&quot;color: rgb(218, 218, 218); background-color: rgb(30, 30, 30); font-family: &amp;quot;Droid Sans Mono&amp;quot;, &amp;quot;monospace&amp;quot;, monospace; font-size: 14px; line-height: 19px;&quot;&gt;&lt;div&gt;&lt;span style=&quot;color: #dcdcaa;&quot;&gt;!if&lt;/span&gt; (&lt;span style=&quot;color: #dcdcaa;&quot;&gt;!eq&lt;/span&gt;(&lt;span style=&quot;color: #9cdcfe;&quot;&gt;Src2&lt;/span&gt;.&lt;span style=&quot;color: #9cdcfe;&quot;&gt;Value&lt;/span&gt;, &lt;span style=&quot;color: #9cdcfe;&quot;&gt;untyped&lt;/span&gt;.&lt;span style=&quot;color: #9cdcfe;&quot;&gt;Value&lt;/span&gt;), &lt;span style=&quot;color: #b5cea8;&quot;&gt;2&lt;/span&gt;,   &lt;span style=&quot;color: #57a64a;&quot;&gt;// VOP2&lt;/span&gt;&lt;/div&gt;&lt;/div&gt;&lt;/blockquote&gt;&lt;/blockquote&gt;&lt;/blockquote&gt;&lt;/blockquote&gt;&lt;blockquote style=&quot;margin: 0 0 0 40px; border: none; padding: 0px;&quot;&gt;&lt;blockquote style=&quot;margin: 0 0 0 40px; border: none; padding: 0px;&quot;&gt;&lt;blockquote style=&quot;margin: 0 0 0 40px; border: none; padding: 0px;&quot;&gt;&lt;blockquote style=&quot;margin: 0 0 0 40px; border: none; padding: 0px;&quot;&gt;&lt;blockquote style=&quot;margin: 0 0 0 40px; border: none; padding: 0px;&quot;&gt;&lt;div style=&quot;color: rgb(218, 218, 218); background-color: rgb(30, 30, 30); font-family: &amp;quot;Droid Sans Mono&amp;quot;, &amp;quot;monospace&amp;quot;, monospace; font-size: 14px; line-height: 19px;&quot;&gt;&lt;div&gt;&lt;span style=&quot;color: #b5cea8;&quot;&gt;3&lt;/span&gt;))); &lt;span style=&quot;color: #57a64a;&quot;&gt;// VOP3&lt;/span&gt;&lt;/div&gt;&lt;/div&gt;&lt;/blockquote&gt;&lt;/blockquote&gt;&lt;/blockquote&gt;&lt;/blockquote&gt;&lt;/blockquote&gt;&lt;div style=&quot;color: rgb(218, 218, 218); background-color: rgb(30, 30, 30); font-family: &amp;quot;Droid Sans Mono&amp;quot;, &amp;quot;monospace&amp;quot;, monospace; font-size: 14px; line-height: 19px;&quot;&gt;&lt;div&gt;}&lt;/div&gt;&lt;/div&gt;" style="text;html=1;align=left;verticalAlign=middle;resizable=0;points=[];autosize=1;strokeColor=none;fillColor=none;" vertex="1" parent="1">
                    <mxGeometry x="-2067" y="-960" width="600" height="150" as="geometry"/>
                </mxCell>
                <mxCell id="13" style="edgeStyle=none;html=1;" edge="1" parent="1" source="14" target="8">
                    <mxGeometry relative="1" as="geometry"/>
                </mxCell>
                <mxCell id="14" value="&lt;div style=&quot;text-align: left; color: rgb(218, 218, 218); background-color: rgb(30, 30, 30); font-family: &amp;quot;Droid Sans Mono&amp;quot;, &amp;quot;monospace&amp;quot;, monospace; font-size: 14px; line-height: 19px;&quot;&gt;&lt;span style=&quot;color: rgb(86, 156, 214);&quot;&gt;class&lt;/span&gt;&amp;nbsp;&lt;span style=&quot;color: rgb(78, 201, 176);&quot;&gt;getHasSDWA&lt;/span&gt;&amp;nbsp;&amp;lt;&lt;span style=&quot;color: rgb(78, 201, 176);&quot;&gt;int&lt;/span&gt;&amp;nbsp;&lt;span style=&quot;color: rgb(156, 220, 254);&quot;&gt;NumSrcArgs&lt;/span&gt;,&amp;nbsp;&lt;span style=&quot;color: rgb(78, 201, 176);&quot;&gt;ValueType&amp;nbsp;&lt;/span&gt;&lt;span style=&quot;color: rgb(156, 220, 254);&quot;&gt;DstVT&lt;/span&gt;&amp;nbsp;=&amp;nbsp;&lt;span style=&quot;color: rgb(156, 220, 254);&quot;&gt;i32&lt;/span&gt;,&amp;nbsp;&lt;span style=&quot;color: rgb(78, 201, 176);&quot;&gt;ValueType&amp;nbsp;&lt;/span&gt;&lt;span style=&quot;color: rgb(156, 220, 254);&quot;&gt;Src0VT&lt;/span&gt;&amp;nbsp;=&amp;nbsp;&lt;span style=&quot;color: rgb(156, 220, 254);&quot;&gt;i32&lt;/span&gt;,&amp;nbsp;&lt;span style=&quot;color: rgb(78, 201, 176);&quot;&gt;ValueType&amp;nbsp;&lt;/span&gt;&lt;span style=&quot;color: rgb(156, 220, 254);&quot;&gt;Src1VT&lt;/span&gt;&amp;nbsp;=&amp;nbsp;&lt;span style=&quot;color: rgb(156, 220, 254);&quot;&gt;i32&lt;/span&gt;&amp;gt; {&lt;/div&gt;&lt;blockquote style=&quot;background-image: ; background-position-x: ; background-position-y: ; background-size: ; background-repeat: ; background-attachment: ; background-origin: ; background-clip: ; border: none; text-align: left; margin: 0px 0px 0px 40px; padding: 0px;&quot;&gt;&lt;div style=&quot;color: rgb(218, 218, 218); background-color: rgb(30, 30, 30); font-family: &amp;quot;Droid Sans Mono&amp;quot;, &amp;quot;monospace&amp;quot;, monospace; font-size: 14px; line-height: 19px;&quot;&gt;&lt;span style=&quot;color: rgb(78, 201, 176);&quot;&gt;bit&lt;/span&gt;&amp;nbsp;&lt;span style=&quot;color: rgb(156, 220, 254);&quot;&gt;ret&lt;/span&gt;&amp;nbsp;=&amp;nbsp;&lt;span style=&quot;color: rgb(220, 220, 170);&quot;&gt;!if&lt;/span&gt;(&lt;span style=&quot;color: rgb(220, 220, 170);&quot;&gt;!eq&lt;/span&gt;(&lt;span style=&quot;color: rgb(156, 220, 254);&quot;&gt;NumSrcArgs&lt;/span&gt;,&amp;nbsp;&lt;span style=&quot;color: rgb(181, 206, 168);&quot;&gt;3&lt;/span&gt;),&lt;/div&gt;&lt;/blockquote&gt;&lt;blockquote style=&quot;background-image: ; background-position-x: ; background-position-y: ; background-size: ; background-repeat: ; background-attachment: ; background-origin: ; background-clip: ; border: none; text-align: left; margin: 0px 0px 0px 40px; padding: 0px;&quot;&gt;&lt;blockquote style=&quot;background-image: ; background-position-x: ; background-position-y: ; background-size: ; background-repeat: ; background-attachment: ; background-origin: ; background-clip: ; border: none; margin: 0px 0px 0px 40px; padding: 0px;&quot;&gt;&lt;div style=&quot;color: rgb(218, 218, 218); background-color: rgb(30, 30, 30); font-family: &amp;quot;Droid Sans Mono&amp;quot;, &amp;quot;monospace&amp;quot;, monospace; font-size: 14px; line-height: 19px;&quot;&gt;&lt;span style=&quot;color: rgb(181, 206, 168);&quot;&gt;0&lt;/span&gt;,&amp;nbsp;&lt;span style=&quot;color: rgb(87, 166, 74);&quot;&gt;// NumSrcArgs == 3 - No SDWA for VOP3&lt;/span&gt;&lt;/div&gt;&lt;/blockquote&gt;&lt;/blockquote&gt;&lt;blockquote style=&quot;background-image: ; background-position-x: ; background-position-y: ; background-size: ; background-repeat: ; background-attachment: ; background-origin: ; background-clip: ; border: none; text-align: left; margin: 0px 0px 0px 40px; padding: 0px;&quot;&gt;&lt;blockquote style=&quot;background-image: ; background-position-x: ; background-position-y: ; background-size: ; background-repeat: ; background-attachment: ; background-origin: ; background-clip: ; border: none; margin: 0px 0px 0px 40px; padding: 0px;&quot;&gt;&lt;blockquote style=&quot;background-image: ; background-position-x: ; background-position-y: ; background-size: ; background-repeat: ; background-attachment: ; background-origin: ; background-clip: ; border: none; margin: 0px 0px 0px 40px; padding: 0px;&quot;&gt;&lt;div style=&quot;color: rgb(218, 218, 218); background-color: rgb(30, 30, 30); font-family: &amp;quot;Droid Sans Mono&amp;quot;, &amp;quot;monospace&amp;quot;, monospace; font-size: 14px; line-height: 19px;&quot;&gt;&lt;span style=&quot;color: rgb(220, 220, 170);&quot;&gt;!if&lt;/span&gt;(&lt;span style=&quot;color: rgb(220, 220, 170);&quot;&gt;!eq&lt;/span&gt;(&lt;span style=&quot;color: rgb(156, 220, 254);&quot;&gt;DstVT&lt;/span&gt;.&lt;span style=&quot;color: rgb(156, 220, 254);&quot;&gt;Size&lt;/span&gt;,&amp;nbsp;&lt;span style=&quot;color: rgb(181, 206, 168);&quot;&gt;64&lt;/span&gt;),&lt;/div&gt;&lt;/blockquote&gt;&lt;/blockquote&gt;&lt;/blockquote&gt;&lt;blockquote style=&quot;background-image: ; background-position-x: ; background-position-y: ; background-size: ; background-repeat: ; background-attachment: ; background-origin: ; background-clip: ; border: none; text-align: left; margin: 0px 0px 0px 40px; padding: 0px;&quot;&gt;&lt;blockquote style=&quot;background-image: ; background-position-x: ; background-position-y: ; background-size: ; background-repeat: ; background-attachment: ; background-origin: ; background-clip: ; border: none; margin: 0px 0px 0px 40px; padding: 0px;&quot;&gt;&lt;blockquote style=&quot;background-image: ; background-position-x: ; background-position-y: ; background-size: ; background-repeat: ; background-attachment: ; background-origin: ; background-clip: ; border: none; margin: 0px 0px 0px 40px; padding: 0px;&quot;&gt;&lt;blockquote style=&quot;background-image: ; background-position-x: ; background-position-y: ; background-size: ; background-repeat: ; background-attachment: ; background-origin: ; background-clip: ; border: none; margin: 0px 0px 0px 40px; padding: 0px;&quot;&gt;&lt;div style=&quot;color: rgb(218, 218, 218); background-color: rgb(30, 30, 30); font-family: &amp;quot;Droid Sans Mono&amp;quot;, &amp;quot;monospace&amp;quot;, monospace; font-size: 14px; line-height: 19px;&quot;&gt;&lt;span style=&quot;color: rgb(181, 206, 168);&quot;&gt;0&lt;/span&gt;,&amp;nbsp;&lt;span style=&quot;color: rgb(87, 166, 74);&quot;&gt;// 64-bit dst - No SDWA for 64-bit operands&lt;/span&gt;&lt;/div&gt;&lt;/blockquote&gt;&lt;/blockquote&gt;&lt;/blockquote&gt;&lt;/blockquote&gt;&lt;blockquote style=&quot;background-image: ; background-position-x: ; background-position-y: ; background-size: ; background-repeat: ; background-attachment: ; background-origin: ; background-clip: ; border: none; text-align: left; margin: 0px 0px 0px 40px; padding: 0px;&quot;&gt;&lt;blockquote style=&quot;background-image: ; background-position-x: ; background-position-y: ; background-size: ; background-repeat: ; background-attachment: ; background-origin: ; background-clip: ; border: none; margin: 0px 0px 0px 40px; padding: 0px;&quot;&gt;&lt;blockquote style=&quot;background-image: ; background-position-x: ; background-position-y: ; background-size: ; background-repeat: ; background-attachment: ; background-origin: ; background-clip: ; border: none; margin: 0px 0px 0px 40px; padding: 0px;&quot;&gt;&lt;blockquote style=&quot;background-image: ; background-position-x: ; background-position-y: ; background-size: ; background-repeat: ; background-attachment: ; background-origin: ; background-clip: ; border: none; margin: 0px 0px 0px 40px; padding: 0px;&quot;&gt;&lt;blockquote style=&quot;background-image: ; background-position-x: ; background-position-y: ; background-size: ; background-repeat: ; background-attachment: ; background-origin: ; background-clip: ; border: none; margin: 0px 0px 0px 40px; padding: 0px;&quot;&gt;&lt;div style=&quot;color: rgb(218, 218, 218); background-color: rgb(30, 30, 30); font-family: &amp;quot;Droid Sans Mono&amp;quot;, &amp;quot;monospace&amp;quot;, monospace; font-size: 14px; line-height: 19px;&quot;&gt;&lt;span style=&quot;color: rgb(220, 220, 170);&quot;&gt;!if&lt;/span&gt;(&lt;span style=&quot;color: rgb(220, 220, 170);&quot;&gt;!eq&lt;/span&gt;(&lt;span style=&quot;color: rgb(156, 220, 254);&quot;&gt;Src0VT&lt;/span&gt;.&lt;span style=&quot;color: rgb(156, 220, 254);&quot;&gt;Size&lt;/span&gt;,&amp;nbsp;&lt;span style=&quot;color: rgb(181, 206, 168);&quot;&gt;64&lt;/span&gt;),&lt;/div&gt;&lt;/blockquote&gt;&lt;/blockquote&gt;&lt;/blockquote&gt;&lt;/blockquote&gt;&lt;/blockquote&gt;&lt;blockquote style=&quot;background-image: ; background-position-x: ; background-position-y: ; background-size: ; background-repeat: ; background-attachment: ; background-origin: ; background-clip: ; border: none; text-align: left; margin: 0px 0px 0px 40px; padding: 0px;&quot;&gt;&lt;blockquote style=&quot;background-image: ; background-position-x: ; background-position-y: ; background-size: ; background-repeat: ; background-attachment: ; background-origin: ; background-clip: ; border: none; margin: 0px 0px 0px 40px; padding: 0px;&quot;&gt;&lt;blockquote style=&quot;background-image: ; background-position-x: ; background-position-y: ; background-size: ; background-repeat: ; background-attachment: ; background-origin: ; background-clip: ; border: none; margin: 0px 0px 0px 40px; padding: 0px;&quot;&gt;&lt;blockquote style=&quot;background-image: ; background-position-x: ; background-position-y: ; background-size: ; background-repeat: ; background-attachment: ; background-origin: ; background-clip: ; border: none; margin: 0px 0px 0px 40px; padding: 0px;&quot;&gt;&lt;blockquote style=&quot;background-image: ; background-position-x: ; background-position-y: ; background-size: ; background-repeat: ; background-attachment: ; background-origin: ; background-clip: ; border: none; margin: 0px 0px 0px 40px; padding: 0px;&quot;&gt;&lt;blockquote style=&quot;background-image: ; background-position-x: ; background-position-y: ; background-size: ; background-repeat: ; background-attachment: ; background-origin: ; background-clip: ; border: none; margin: 0px 0px 0px 40px; padding: 0px;&quot;&gt;&lt;div style=&quot;color: rgb(218, 218, 218); background-color: rgb(30, 30, 30); font-family: &amp;quot;Droid Sans Mono&amp;quot;, &amp;quot;monospace&amp;quot;, monospace; font-size: 14px; line-height: 19px;&quot;&gt;&lt;span style=&quot;color: rgb(181, 206, 168);&quot;&gt;0&lt;/span&gt;,&amp;nbsp;&lt;span style=&quot;color: rgb(87, 166, 74);&quot;&gt;// 64-bit src0&lt;/span&gt;&lt;/div&gt;&lt;/blockquote&gt;&lt;/blockquote&gt;&lt;/blockquote&gt;&lt;/blockquote&gt;&lt;/blockquote&gt;&lt;/blockquote&gt;&lt;blockquote style=&quot;background-image: ; background-position-x: ; background-position-y: ; background-size: ; background-repeat: ; background-attachment: ; background-origin: ; background-clip: ; border: none; text-align: left; margin: 0px 0px 0px 40px; padding: 0px;&quot;&gt;&lt;blockquote style=&quot;background-image: ; background-position-x: ; background-position-y: ; background-size: ; background-repeat: ; background-attachment: ; background-origin: ; background-clip: ; border: none; margin: 0px 0px 0px 40px; padding: 0px;&quot;&gt;&lt;blockquote style=&quot;background-image: ; background-position-x: ; background-position-y: ; background-size: ; background-repeat: ; background-attachment: ; background-origin: ; background-clip: ; border: none; margin: 0px 0px 0px 40px; padding: 0px;&quot;&gt;&lt;blockquote style=&quot;background-image: ; background-position-x: ; background-position-y: ; background-size: ; background-repeat: ; background-attachment: ; background-origin: ; background-clip: ; border: none; margin: 0px 0px 0px 40px; padding: 0px;&quot;&gt;&lt;blockquote style=&quot;background-image: ; background-position-x: ; background-position-y: ; background-size: ; background-repeat: ; background-attachment: ; background-origin: ; background-clip: ; border: none; margin: 0px 0px 0px 40px; padding: 0px;&quot;&gt;&lt;blockquote style=&quot;background-image: ; background-position-x: ; background-position-y: ; background-size: ; background-repeat: ; background-attachment: ; background-origin: ; background-clip: ; border: none; margin: 0px 0px 0px 40px; padding: 0px;&quot;&gt;&lt;blockquote style=&quot;background-image: ; background-position-x: ; background-position-y: ; background-size: ; background-repeat: ; background-attachment: ; background-origin: ; background-clip: ; border: none; margin: 0px 0px 0px 40px; padding: 0px;&quot;&gt;&lt;div style=&quot;color: rgb(218, 218, 218); background-color: rgb(30, 30, 30); font-family: &amp;quot;Droid Sans Mono&amp;quot;, &amp;quot;monospace&amp;quot;, monospace; font-size: 14px; line-height: 19px;&quot;&gt;&lt;span style=&quot;color: rgb(220, 220, 170);&quot;&gt;!if&lt;/span&gt;(&lt;span style=&quot;color: rgb(220, 220, 170);&quot;&gt;!eq&lt;/span&gt;(&lt;span style=&quot;color: rgb(156, 220, 254);&quot;&gt;Src1VT&lt;/span&gt;.&lt;span style=&quot;color: rgb(156, 220, 254);&quot;&gt;Size&lt;/span&gt;,&amp;nbsp;&lt;span style=&quot;color: rgb(181, 206, 168);&quot;&gt;64&lt;/span&gt;),&lt;/div&gt;&lt;/blockquote&gt;&lt;/blockquote&gt;&lt;/blockquote&gt;&lt;/blockquote&gt;&lt;/blockquote&gt;&lt;/blockquote&gt;&lt;/blockquote&gt;&lt;blockquote style=&quot;background-image: ; background-position-x: ; background-position-y: ; background-size: ; background-repeat: ; background-attachment: ; background-origin: ; background-clip: ; border: none; text-align: left; margin: 0px 0px 0px 40px; padding: 0px;&quot;&gt;&lt;blockquote style=&quot;background-image: ; background-position-x: ; background-position-y: ; background-size: ; background-repeat: ; background-attachment: ; background-origin: ; background-clip: ; border: none; margin: 0px 0px 0px 40px; padding: 0px;&quot;&gt;&lt;blockquote style=&quot;background-image: ; background-position-x: ; background-position-y: ; background-size: ; background-repeat: ; background-attachment: ; background-origin: ; background-clip: ; border: none; margin: 0px 0px 0px 40px; padding: 0px;&quot;&gt;&lt;blockquote style=&quot;background-image: ; background-position-x: ; background-position-y: ; background-size: ; background-repeat: ; background-attachment: ; background-origin: ; background-clip: ; border: none; margin: 0px 0px 0px 40px; padding: 0px;&quot;&gt;&lt;blockquote style=&quot;background-image: ; background-position-x: ; background-position-y: ; background-size: ; background-repeat: ; background-attachment: ; background-origin: ; background-clip: ; border: none; margin: 0px 0px 0px 40px; padding: 0px;&quot;&gt;&lt;blockquote style=&quot;background-image: ; background-position-x: ; background-position-y: ; background-size: ; background-repeat: ; background-attachment: ; background-origin: ; background-clip: ; border: none; margin: 0px 0px 0px 40px; padding: 0px;&quot;&gt;&lt;blockquote style=&quot;background-image: ; background-position-x: ; background-position-y: ; background-size: ; background-repeat: ; background-attachment: ; background-origin: ; background-clip: ; border: none; margin: 0px 0px 0px 40px; padding: 0px;&quot;&gt;&lt;blockquote style=&quot;background-image: ; background-position-x: ; background-position-y: ; background-size: ; background-repeat: ; background-attachment: ; background-origin: ; background-clip: ; border: none; margin: 0px 0px 0px 40px; padding: 0px;&quot;&gt;&lt;div style=&quot;color: rgb(218, 218, 218); background-color: rgb(30, 30, 30); font-family: &amp;quot;Droid Sans Mono&amp;quot;, &amp;quot;monospace&amp;quot;, monospace; font-size: 14px; line-height: 19px;&quot;&gt;&lt;span style=&quot;color: rgb(181, 206, 168);&quot;&gt;0&lt;/span&gt;,&amp;nbsp;&lt;span style=&quot;color: rgb(87, 166, 74);&quot;&gt;// 64-bit src2&lt;/span&gt;&lt;/div&gt;&lt;/blockquote&gt;&lt;/blockquote&gt;&lt;/blockquote&gt;&lt;/blockquote&gt;&lt;/blockquote&gt;&lt;/blockquote&gt;&lt;/blockquote&gt;&lt;blockquote style=&quot;background-image: ; background-position-x: ; background-position-y: ; background-size: ; background-repeat: ; background-attachment: ; background-origin: ; background-clip: ; border: none; margin: 0px 0px 0px 40px; padding: 0px;&quot;&gt;&lt;blockquote style=&quot;background-image: ; background-position-x: ; background-position-y: ; background-size: ; background-repeat: ; background-attachment: ; background-origin: ; background-clip: ; border: none; margin: 0px 0px 0px 40px; padding: 0px;&quot;&gt;&lt;blockquote style=&quot;background-image: ; background-position-x: ; background-position-y: ; background-size: ; background-repeat: ; background-attachment: ; background-origin: ; background-clip: ; border: none; margin: 0px 0px 0px 40px; padding: 0px;&quot;&gt;&lt;blockquote style=&quot;background-image: ; background-position-x: ; background-position-y: ; background-size: ; background-repeat: ; background-attachment: ; background-origin: ; background-clip: ; border: none; margin: 0px 0px 0px 40px; padding: 0px;&quot;&gt;&lt;blockquote style=&quot;background-image: ; background-position-x: ; background-position-y: ; background-size: ; background-repeat: ; background-attachment: ; background-origin: ; background-clip: ; border: none; margin: 0px 0px 0px 40px; padding: 0px;&quot;&gt;&lt;blockquote style=&quot;background-image: ; background-position-x: ; background-position-y: ; background-size: ; background-repeat: ; background-attachment: ; background-origin: ; background-clip: ; border: none; margin: 0px 0px 0px 40px; padding: 0px;&quot;&gt;&lt;blockquote style=&quot;background-image: ; background-position-x: ; background-position-y: ; background-size: ; background-repeat: ; background-attachment: ; background-origin: ; background-clip: ; border: none; margin: 0px 0px 0px 40px; padding: 0px;&quot;&gt;&lt;div style=&quot;color: rgb(218, 218, 218); background-color: rgb(30, 30, 30); font-family: &amp;quot;Droid Sans Mono&amp;quot;, &amp;quot;monospace&amp;quot;, monospace; font-size: 14px; line-height: 19px;&quot;&gt;&lt;span style=&quot;color: rgb(181, 206, 168);&quot;&gt;1&lt;/span&gt;&lt;/div&gt;&lt;/blockquote&gt;&lt;/blockquote&gt;&lt;/blockquote&gt;&lt;/blockquote&gt;&lt;/blockquote&gt;&lt;/blockquote&gt;&lt;/blockquote&gt;&lt;blockquote style=&quot;background-image: ; background-position-x: ; background-position-y: ; background-size: ; background-repeat: ; background-attachment: ; background-origin: ; background-clip: ; border: none; margin: 0px 0px 0px 40px; padding: 0px;&quot;&gt;&lt;blockquote style=&quot;background-image: ; background-position-x: ; background-position-y: ; background-size: ; background-repeat: ; background-attachment: ; background-origin: ; background-clip: ; border: none; margin: 0px 0px 0px 40px; padding: 0px;&quot;&gt;&lt;blockquote style=&quot;background-image: ; background-position-x: ; background-position-y: ; background-size: ; background-repeat: ; background-attachment: ; background-origin: ; background-clip: ; border: none; margin: 0px 0px 0px 40px; padding: 0px;&quot;&gt;&lt;blockquote style=&quot;background-image: ; background-position-x: ; background-position-y: ; background-size: ; background-repeat: ; background-attachment: ; background-origin: ; background-clip: ; border: none; margin: 0px 0px 0px 40px; padding: 0px;&quot;&gt;&lt;blockquote style=&quot;background-image: ; background-position-x: ; background-position-y: ; background-size: ; background-repeat: ; background-attachment: ; background-origin: ; background-clip: ; border: none; margin: 0px 0px 0px 40px; padding: 0px;&quot;&gt;&lt;div style=&quot;color: rgb(218, 218, 218); background-color: rgb(30, 30, 30); font-family: &amp;quot;Droid Sans Mono&amp;quot;, &amp;quot;monospace&amp;quot;, monospace; font-size: 14px; line-height: 19px;&quot;&gt;)&lt;/div&gt;&lt;/blockquote&gt;&lt;/blockquote&gt;&lt;/blockquote&gt;&lt;/blockquote&gt;&lt;/blockquote&gt;&lt;blockquote style=&quot;background-image: ; background-position-x: ; background-position-y: ; background-size: ; background-repeat: ; background-attachment: ; background-origin: ; background-clip: ; border: none; margin: 0px 0px 0px 40px; padding: 0px;&quot;&gt;&lt;blockquote style=&quot;background-image: ; background-position-x: ; background-position-y: ; background-size: ; background-repeat: ; background-attachment: ; background-origin: ; background-clip: ; border: none; margin: 0px 0px 0px 40px; padding: 0px;&quot;&gt;&lt;blockquote style=&quot;background-image: ; background-position-x: ; background-position-y: ; background-size: ; background-repeat: ; background-attachment: ; background-origin: ; background-clip: ; border: none; margin: 0px 0px 0px 40px; padding: 0px;&quot;&gt;&lt;blockquote style=&quot;background-image: ; background-position-x: ; background-position-y: ; background-size: ; background-repeat: ; background-attachment: ; background-origin: ; background-clip: ; border: none; margin: 0px 0px 0px 40px; padding: 0px;&quot;&gt;&lt;div style=&quot;color: rgb(218, 218, 218); background-color: rgb(30, 30, 30); font-family: &amp;quot;Droid Sans Mono&amp;quot;, &amp;quot;monospace&amp;quot;, monospace; font-size: 14px; line-height: 19px;&quot;&gt;)&lt;/div&gt;&lt;/blockquote&gt;&lt;/blockquote&gt;&lt;/blockquote&gt;&lt;/blockquote&gt;&lt;blockquote style=&quot;background-image: ; background-position-x: ; background-position-y: ; background-size: ; background-repeat: ; background-attachment: ; background-origin: ; background-clip: ; border: none; margin: 0px 0px 0px 40px; padding: 0px;&quot;&gt;&lt;blockquote style=&quot;background-image: ; background-position-x: ; background-position-y: ; background-size: ; background-repeat: ; background-attachment: ; background-origin: ; background-clip: ; border: none; margin: 0px 0px 0px 40px; padding: 0px;&quot;&gt;&lt;blockquote style=&quot;background-image: ; background-position-x: ; background-position-y: ; background-size: ; background-repeat: ; background-attachment: ; background-origin: ; background-clip: ; border: none; margin: 0px 0px 0px 40px; padding: 0px;&quot;&gt;&lt;div style=&quot;color: rgb(218, 218, 218); background-color: rgb(30, 30, 30); font-family: &amp;quot;Droid Sans Mono&amp;quot;, &amp;quot;monospace&amp;quot;, monospace; font-size: 14px; line-height: 19px;&quot;&gt;)&lt;/div&gt;&lt;/blockquote&gt;&lt;/blockquote&gt;&lt;/blockquote&gt;&lt;blockquote style=&quot;background-image: ; background-position-x: ; background-position-y: ; background-size: ; background-repeat: ; background-attachment: ; background-origin: ; background-clip: ; border: none; margin: 0px 0px 0px 40px; padding: 0px;&quot;&gt;&lt;blockquote style=&quot;background-image: ; background-position-x: ; background-position-y: ; background-size: ; background-repeat: ; background-attachment: ; background-origin: ; background-clip: ; border: none; margin: 0px 0px 0px 40px; padding: 0px;&quot;&gt;&lt;div style=&quot;color: rgb(218, 218, 218); background-color: rgb(30, 30, 30); font-family: &amp;quot;Droid Sans Mono&amp;quot;, &amp;quot;monospace&amp;quot;, monospace; font-size: 14px; line-height: 19px;&quot;&gt;);&lt;/div&gt;&lt;/blockquote&gt;&lt;/blockquote&gt;&lt;/blockquote&gt;&lt;div style=&quot;text-align: left; color: rgb(218, 218, 218); background-color: rgb(30, 30, 30); font-family: &amp;quot;Droid Sans Mono&amp;quot;, &amp;quot;monospace&amp;quot;, monospace; font-size: 14px; line-height: 19px;&quot;&gt;}&lt;/div&gt;" style="text;html=1;align=center;verticalAlign=middle;resizable=0;points=[];autosize=1;strokeColor=none;fillColor=none;" vertex="1" parent="1">
                    <mxGeometry x="-3090" y="-960" width="910" height="300" as="geometry"/>
                </mxCell>
                <mxCell id="15" style="edgeStyle=none;html=1;" edge="1" parent="1" source="16" target="8">
                    <mxGeometry relative="1" as="geometry"/>
                </mxCell>
                <mxCell id="16" value="&lt;div style=&quot;color: rgb(218, 218, 218); background-color: rgb(30, 30, 30); font-family: &amp;quot;Droid Sans Mono&amp;quot;, &amp;quot;monospace&amp;quot;, monospace; font-size: 14px; line-height: 19px;&quot;&gt;&lt;div&gt;&lt;span style=&quot;color: #569cd6;&quot;&gt;class&lt;/span&gt; &lt;span style=&quot;color: #4ec9b0;&quot;&gt;getHasVOP3DPP&lt;/span&gt; &amp;lt;&lt;span style=&quot;color: #4ec9b0;&quot;&gt;ValueType &lt;/span&gt;&lt;span style=&quot;color: #9cdcfe;&quot;&gt;DstVT&lt;/span&gt; = &lt;span style=&quot;color: #9cdcfe;&quot;&gt;i32&lt;/span&gt;, &lt;span style=&quot;color: #4ec9b0;&quot;&gt;ValueType &lt;/span&gt;&lt;span style=&quot;color: #9cdcfe;&quot;&gt;Src0VT&lt;/span&gt; = &lt;span style=&quot;color: #9cdcfe;&quot;&gt;i32&lt;/span&gt;,&amp;nbsp;&lt;span style=&quot;color: rgb(78, 201, 176);&quot;&gt;ValueType &lt;/span&gt;&lt;span style=&quot;color: rgb(156, 220, 254);&quot;&gt;Src1VT&lt;/span&gt; = &lt;span style=&quot;color: rgb(156, 220, 254);&quot;&gt;i32&lt;/span&gt;, &lt;span style=&quot;color: rgb(78, 201, 176);&quot;&gt;ValueType &lt;/span&gt;&lt;span style=&quot;color: rgb(156, 220, 254);&quot;&gt;Src2VT&lt;/span&gt; = &lt;span style=&quot;color: rgb(156, 220, 254);&quot;&gt;i32&lt;/span&gt;&amp;gt; {&lt;/div&gt;&lt;/div&gt;&lt;blockquote style=&quot;margin: 0 0 0 40px; border: none; padding: 0px;&quot;&gt;&lt;div style=&quot;color: rgb(218, 218, 218); background-color: rgb(30, 30, 30); font-family: &amp;quot;Droid Sans Mono&amp;quot;, &amp;quot;monospace&amp;quot;, monospace; font-size: 14px; line-height: 19px;&quot;&gt;&lt;div&gt;&lt;span style=&quot;color: #4ec9b0;&quot;&gt;bit&lt;/span&gt; &lt;span style=&quot;color: #9cdcfe;&quot;&gt;ret&lt;/span&gt; =    &lt;span style=&quot;color: #dcdcaa;&quot;&gt;!if&lt;/span&gt;(&lt;span style=&quot;color: #dcdcaa;&quot;&gt;!eq&lt;/span&gt;(&lt;span style=&quot;color: #9cdcfe;&quot;&gt;DstVT&lt;/span&gt;.&lt;span style=&quot;color: #9cdcfe;&quot;&gt;Size&lt;/span&gt;, &lt;span style=&quot;color: #b5cea8;&quot;&gt;64&lt;/span&gt;),&lt;/div&gt;&lt;/div&gt;&lt;/blockquote&gt;&lt;blockquote style=&quot;margin: 0 0 0 40px; border: none; padding: 0px;&quot;&gt;&lt;blockquote style=&quot;margin: 0 0 0 40px; border: none; padding: 0px;&quot;&gt;&lt;div style=&quot;color: rgb(218, 218, 218); background-color: rgb(30, 30, 30); font-family: &amp;quot;Droid Sans Mono&amp;quot;, &amp;quot;monospace&amp;quot;, monospace; font-size: 14px; line-height: 19px;&quot;&gt;&lt;div&gt;&lt;span style=&quot;color: #b5cea8;&quot;&gt;0&lt;/span&gt;, &lt;span style=&quot;color: #57a64a;&quot;&gt;// 64-bit dst No DPP for 64-bit operands&lt;/span&gt;&lt;/div&gt;&lt;/div&gt;&lt;/blockquote&gt;&lt;/blockquote&gt;&lt;blockquote style=&quot;margin: 0 0 0 40px; border: none; padding: 0px;&quot;&gt;&lt;blockquote style=&quot;margin: 0 0 0 40px; border: none; padding: 0px;&quot;&gt;&lt;blockquote style=&quot;margin: 0 0 0 40px; border: none; padding: 0px;&quot;&gt;&lt;div style=&quot;color: rgb(218, 218, 218); background-color: rgb(30, 30, 30); font-family: &amp;quot;Droid Sans Mono&amp;quot;, &amp;quot;monospace&amp;quot;, monospace; font-size: 14px; line-height: 19px;&quot;&gt;&lt;div&gt;&lt;span style=&quot;color: #dcdcaa;&quot;&gt;!if&lt;/span&gt;(&lt;span style=&quot;color: #dcdcaa;&quot;&gt;!eq&lt;/span&gt;(&lt;span style=&quot;color: #9cdcfe;&quot;&gt;Src0VT&lt;/span&gt;.&lt;span style=&quot;color: #9cdcfe;&quot;&gt;Size&lt;/span&gt;, &lt;span style=&quot;color: #b5cea8;&quot;&gt;64&lt;/span&gt;),&lt;/div&gt;&lt;/div&gt;&lt;/blockquote&gt;&lt;/blockquote&gt;&lt;/blockquote&gt;&lt;blockquote style=&quot;margin: 0 0 0 40px; border: none; padding: 0px;&quot;&gt;&lt;blockquote style=&quot;margin: 0 0 0 40px; border: none; padding: 0px;&quot;&gt;&lt;blockquote style=&quot;margin: 0 0 0 40px; border: none; padding: 0px;&quot;&gt;&lt;blockquote style=&quot;margin: 0 0 0 40px; border: none; padding: 0px;&quot;&gt;&lt;div style=&quot;color: rgb(218, 218, 218); background-color: rgb(30, 30, 30); font-family: &amp;quot;Droid Sans Mono&amp;quot;, &amp;quot;monospace&amp;quot;, monospace; font-size: 14px; line-height: 19px;&quot;&gt;&lt;div&gt;&lt;span style=&quot;color: #b5cea8;&quot;&gt;0&lt;/span&gt;, &lt;span style=&quot;color: #57a64a;&quot;&gt;// 64-bit src0&lt;/span&gt;&lt;/div&gt;&lt;/div&gt;&lt;/blockquote&gt;&lt;/blockquote&gt;&lt;/blockquote&gt;&lt;blockquote style=&quot;margin: 0 0 0 40px; border: none; padding: 0px;&quot;&gt;&lt;blockquote style=&quot;margin: 0 0 0 40px; border: none; padding: 0px;&quot;&gt;&lt;blockquote style=&quot;margin: 0 0 0 40px; border: none; padding: 0px;&quot;&gt;&lt;div style=&quot;color: rgb(218, 218, 218); background-color: rgb(30, 30, 30); font-family: &amp;quot;Droid Sans Mono&amp;quot;, &amp;quot;monospace&amp;quot;, monospace; font-size: 14px; line-height: 19px;&quot;&gt;&lt;div&gt;&lt;span style=&quot;color: #dcdcaa;&quot;&gt;!if&lt;/span&gt;(&lt;span style=&quot;color: #dcdcaa;&quot;&gt;!eq&lt;/span&gt;(&lt;span style=&quot;color: #9cdcfe;&quot;&gt;Src1VT&lt;/span&gt;.&lt;span style=&quot;color: #9cdcfe;&quot;&gt;Size&lt;/span&gt;, &lt;span style=&quot;color: #b5cea8;&quot;&gt;64&lt;/span&gt;),&lt;/div&gt;&lt;/div&gt;&lt;/blockquote&gt;&lt;/blockquote&gt;&lt;/blockquote&gt;&lt;/blockquote&gt;&lt;blockquote style=&quot;margin: 0 0 0 40px; border: none; padding: 0px;&quot;&gt;&lt;blockquote style=&quot;margin: 0 0 0 40px; border: none; padding: 0px;&quot;&gt;&lt;blockquote style=&quot;margin: 0 0 0 40px; border: none; padding: 0px;&quot;&gt;&lt;blockquote style=&quot;margin: 0 0 0 40px; border: none; padding: 0px;&quot;&gt;&lt;blockquote style=&quot;margin: 0 0 0 40px; border: none; padding: 0px;&quot;&gt;&lt;div style=&quot;color: rgb(218, 218, 218); background-color: rgb(30, 30, 30); font-family: &amp;quot;Droid Sans Mono&amp;quot;, &amp;quot;monospace&amp;quot;, monospace; font-size: 14px; line-height: 19px;&quot;&gt;&lt;div&gt;&lt;span style=&quot;color: #b5cea8;&quot;&gt;0&lt;/span&gt;, &lt;span style=&quot;color: #57a64a;&quot;&gt;// 64-bit src1&lt;/span&gt;&lt;/div&gt;&lt;/div&gt;&lt;/blockquote&gt;&lt;/blockquote&gt;&lt;/blockquote&gt;&lt;/blockquote&gt;&lt;blockquote style=&quot;margin: 0 0 0 40px; border: none; padding: 0px;&quot;&gt;&lt;blockquote style=&quot;margin: 0 0 0 40px; border: none; padding: 0px;&quot;&gt;&lt;blockquote style=&quot;margin: 0 0 0 40px; border: none; padding: 0px;&quot;&gt;&lt;blockquote style=&quot;margin: 0 0 0 40px; border: none; padding: 0px;&quot;&gt;&lt;div style=&quot;color: rgb(218, 218, 218); background-color: rgb(30, 30, 30); font-family: &amp;quot;Droid Sans Mono&amp;quot;, &amp;quot;monospace&amp;quot;, monospace; font-size: 14px; line-height: 19px;&quot;&gt;&lt;div&gt;&lt;span style=&quot;color: #dcdcaa;&quot;&gt;!if&lt;/span&gt;(&lt;span style=&quot;color: #dcdcaa;&quot;&gt;!eq&lt;/span&gt;(&lt;span style=&quot;color: #9cdcfe;&quot;&gt;Src2VT&lt;/span&gt;.&lt;span style=&quot;color: #9cdcfe;&quot;&gt;Size&lt;/span&gt;, &lt;span style=&quot;color: #b5cea8;&quot;&gt;64&lt;/span&gt;),&lt;/div&gt;&lt;/div&gt;&lt;/blockquote&gt;&lt;/blockquote&gt;&lt;/blockquote&gt;&lt;/blockquote&gt;&lt;/blockquote&gt;&lt;blockquote style=&quot;margin: 0 0 0 40px; border: none; padding: 0px;&quot;&gt;&lt;blockquote style=&quot;margin: 0 0 0 40px; border: none; padding: 0px;&quot;&gt;&lt;blockquote style=&quot;margin: 0 0 0 40px; border: none; padding: 0px;&quot;&gt;&lt;blockquote style=&quot;margin: 0 0 0 40px; border: none; padding: 0px;&quot;&gt;&lt;blockquote style=&quot;margin: 0 0 0 40px; border: none; padding: 0px;&quot;&gt;&lt;blockquote style=&quot;margin: 0 0 0 40px; border: none; padding: 0px;&quot;&gt;&lt;div style=&quot;color: rgb(218, 218, 218); background-color: rgb(30, 30, 30); font-family: &amp;quot;Droid Sans Mono&amp;quot;, &amp;quot;monospace&amp;quot;, monospace; font-size: 14px; line-height: 19px;&quot;&gt;&lt;div&gt;&lt;span style=&quot;color: #b5cea8;&quot;&gt;0&lt;/span&gt;, &lt;span style=&quot;color: #57a64a;&quot;&gt;// 64-bit src2&lt;/span&gt;&lt;/div&gt;&lt;/div&gt;&lt;/blockquote&gt;&lt;/blockquote&gt;&lt;/blockquote&gt;&lt;/blockquote&gt;&lt;/blockquote&gt;&lt;blockquote style=&quot;margin: 0 0 0 40px; border: none; padding: 0px;&quot;&gt;&lt;blockquote style=&quot;margin: 0 0 0 40px; border: none; padding: 0px;&quot;&gt;&lt;blockquote style=&quot;margin: 0 0 0 40px; border: none; padding: 0px;&quot;&gt;&lt;blockquote style=&quot;margin: 0 0 0 40px; border: none; padding: 0px;&quot;&gt;&lt;blockquote style=&quot;margin: 0 0 0 40px; border: none; padding: 0px;&quot;&gt;&lt;div style=&quot;color: rgb(218, 218, 218); background-color: rgb(30, 30, 30); font-family: &amp;quot;Droid Sans Mono&amp;quot;, &amp;quot;monospace&amp;quot;, monospace; font-size: 14px; line-height: 19px;&quot;&gt;&lt;div&gt;&lt;span style=&quot;color: #b5cea8;&quot;&gt;1&lt;/span&gt;&lt;/div&gt;&lt;/div&gt;&lt;/blockquote&gt;&lt;/blockquote&gt;&lt;/blockquote&gt;&lt;/blockquote&gt;&lt;/blockquote&gt;&lt;/blockquote&gt;&lt;blockquote style=&quot;margin: 0 0 0 40px; border: none; padding: 0px;&quot;&gt;&lt;blockquote style=&quot;margin: 0 0 0 40px; border: none; padding: 0px;&quot;&gt;&lt;blockquote style=&quot;margin: 0 0 0 40px; border: none; padding: 0px;&quot;&gt;&lt;blockquote style=&quot;margin: 0 0 0 40px; border: none; padding: 0px;&quot;&gt;&lt;div style=&quot;color: rgb(218, 218, 218); background-color: rgb(30, 30, 30); font-family: &amp;quot;Droid Sans Mono&amp;quot;, &amp;quot;monospace&amp;quot;, monospace; font-size: 14px; line-height: 19px;&quot;&gt;&lt;div&gt;                            )&lt;/div&gt;&lt;/div&gt;&lt;/blockquote&gt;&lt;/blockquote&gt;&lt;/blockquote&gt;&lt;/blockquote&gt;&lt;blockquote style=&quot;margin: 0 0 0 40px; border: none; padding: 0px;&quot;&gt;&lt;blockquote style=&quot;margin: 0 0 0 40px; border: none; padding: 0px;&quot;&gt;&lt;blockquote style=&quot;margin: 0 0 0 40px; border: none; padding: 0px;&quot;&gt;&lt;div style=&quot;color: rgb(218, 218, 218); background-color: rgb(30, 30, 30); font-family: &amp;quot;Droid Sans Mono&amp;quot;, &amp;quot;monospace&amp;quot;, monospace; font-size: 14px; line-height: 19px;&quot;&gt;&lt;div&gt;                        )&lt;/div&gt;&lt;/div&gt;&lt;/blockquote&gt;&lt;/blockquote&gt;&lt;/blockquote&gt;&lt;blockquote style=&quot;margin: 0 0 0 40px; border: none; padding: 0px;&quot;&gt;&lt;blockquote style=&quot;margin: 0 0 0 40px; border: none; padding: 0px;&quot;&gt;&lt;div style=&quot;color: rgb(218, 218, 218); background-color: rgb(30, 30, 30); font-family: &amp;quot;Droid Sans Mono&amp;quot;, &amp;quot;monospace&amp;quot;, monospace; font-size: 14px; line-height: 19px;&quot;&gt;&lt;div&gt;                    )&lt;/div&gt;&lt;/div&gt;&lt;/blockquote&gt;&lt;/blockquote&gt;&lt;blockquote style=&quot;margin: 0 0 0 40px; border: none; padding: 0px;&quot;&gt;&lt;div style=&quot;color: rgb(218, 218, 218); background-color: rgb(30, 30, 30); font-family: &amp;quot;Droid Sans Mono&amp;quot;, &amp;quot;monospace&amp;quot;, monospace; font-size: 14px; line-height: 19px;&quot;&gt;&lt;div&gt;                );&lt;/div&gt;&lt;/div&gt;&lt;/blockquote&gt;&lt;div style=&quot;color: rgb(218, 218, 218); background-color: rgb(30, 30, 30); font-family: &amp;quot;Droid Sans Mono&amp;quot;, &amp;quot;monospace&amp;quot;, monospace; font-size: 14px; line-height: 19px;&quot;&gt;&lt;div&gt;}&lt;/div&gt;&lt;/div&gt;" style="text;html=1;align=left;verticalAlign=middle;resizable=0;points=[];autosize=1;strokeColor=none;fillColor=none;" vertex="1" parent="1">
                    <mxGeometry x="-3440" y="-570" width="1010" height="300" as="geometry"/>
                </mxCell>
                <mxCell id="17" style="edgeStyle=none;html=1;" edge="1" parent="1" source="18" target="8">
                    <mxGeometry relative="1" as="geometry"/>
                </mxCell>
                <mxCell id="18" value="&lt;div style=&quot;color: rgb(218, 218, 218); background-color: rgb(30, 30, 30); font-family: &amp;quot;Droid Sans Mono&amp;quot;, &amp;quot;monospace&amp;quot;, monospace; font-size: 14px; line-height: 19px;&quot;&gt;&lt;div&gt;&lt;span style=&quot;color: #569cd6;&quot;&gt;def&lt;/span&gt; &lt;span style=&quot;color: #9cdcfe;&quot;&gt;i32&lt;/span&gt;     : &lt;span style=&quot;color: #4ec9b0;&quot;&gt;ValueType&lt;/span&gt;&amp;lt;&lt;span style=&quot;color: #b5cea8;&quot;&gt;32&lt;/span&gt;,  &lt;span style=&quot;color: #b5cea8;&quot;&gt;7&lt;/span&gt;&amp;gt;;  &lt;span style=&quot;color: #57a64a;&quot;&gt;// 32-bit integer value&lt;/span&gt;&lt;/div&gt;&lt;div&gt;&lt;span style=&quot;color: #569cd6;&quot;&gt;def&lt;/span&gt; &lt;span style=&quot;color: #9cdcfe;&quot;&gt;untyped&lt;/span&gt;   : &lt;span style=&quot;color: #4ec9b0;&quot;&gt;ValueType&lt;/span&gt;&amp;lt;&lt;span style=&quot;color: #b5cea8;&quot;&gt;8&lt;/span&gt;,    &lt;span style=&quot;color: #b5cea8;&quot;&gt;191&lt;/span&gt;&amp;gt;;  &lt;span style=&quot;color: #57a64a;&quot;&gt;// Produces an untyped value&lt;/span&gt;&lt;/div&gt;&lt;/div&gt;" style="text;html=1;align=left;verticalAlign=middle;resizable=0;points=[];autosize=1;strokeColor=none;fillColor=none;" vertex="1" parent="1">
                    <mxGeometry x="-1360" y="-910" width="540" height="50" as="geometry"/>
                </mxCell>
                <mxCell id="19" style="edgeStyle=none;html=1;" edge="1" parent="1" source="21" target="4">
                    <mxGeometry relative="1" as="geometry"/>
                </mxCell>
                <mxCell id="20" style="edgeStyle=none;html=1;entryX=-0.003;entryY=0.505;entryDx=0;entryDy=0;entryPerimeter=0;" edge="1" parent="1" source="21" target="23">
                    <mxGeometry relative="1" as="geometry"/>
                </mxCell>
                <mxCell id="21" value="&lt;div style=&quot;color: rgb(218, 218, 218); background-color: rgb(30, 30, 30); font-family: &amp;quot;Droid Sans Mono&amp;quot;, &amp;quot;monospace&amp;quot;, monospace; font-size: 14px; line-height: 19px;&quot;&gt;&lt;div&gt;&lt;div style=&quot;line-height: 19px;&quot;&gt;&lt;div&gt;&lt;span style=&quot;color: #57a64a;&quot;&gt;// opName = &quot;v_xnor_b32&quot;&lt;/span&gt;&lt;/div&gt;&lt;div&gt;&lt;span style=&quot;color: #57a64a;&quot;&gt;// P = VOP_I32_I32_I32&lt;/span&gt;&lt;/div&gt;&lt;div&gt;&lt;span style=&quot;color: #57a64a;&quot;&gt;// node = xnor&lt;/span&gt;&lt;/div&gt;&lt;/div&gt;&lt;/div&gt;&lt;div&gt;&lt;span style=&quot;color: #569cd6;&quot;&gt;multiclass&lt;/span&gt; &lt;span style=&quot;color: #4ec9b0;&quot;&gt;VOP2Inst&lt;/span&gt;&amp;lt;&lt;span style=&quot;color: #4ec9b0;&quot;&gt;string&lt;/span&gt; &lt;span style=&quot;color: #9cdcfe;&quot;&gt;opName&lt;/span&gt;,&lt;/div&gt;&lt;/div&gt;&lt;blockquote style=&quot;margin: 0 0 0 40px; border: none; padding: 0px;&quot;&gt;&lt;blockquote style=&quot;margin: 0 0 0 40px; border: none; padding: 0px;&quot;&gt;&lt;blockquote style=&quot;margin: 0 0 0 40px; border: none; padding: 0px;&quot;&gt;&lt;blockquote style=&quot;margin: 0 0 0 40px; border: none; padding: 0px;&quot;&gt;&lt;div style=&quot;color: rgb(218, 218, 218); background-color: rgb(30, 30, 30); font-family: &amp;quot;Droid Sans Mono&amp;quot;, &amp;quot;monospace&amp;quot;, monospace; font-size: 14px; line-height: 19px;&quot;&gt;&lt;div&gt;&lt;span style=&quot;color: #4ec9b0;&quot;&gt;VOPProfile &lt;/span&gt;&lt;span style=&quot;color: #9cdcfe;&quot;&gt;P&lt;/span&gt;,&lt;/div&gt;&lt;/div&gt;&lt;/blockquote&gt;&lt;/blockquote&gt;&lt;/blockquote&gt;&lt;blockquote style=&quot;margin: 0 0 0 40px; border: none; padding: 0px;&quot;&gt;&lt;blockquote style=&quot;margin: 0 0 0 40px; border: none; padding: 0px;&quot;&gt;&lt;blockquote style=&quot;margin: 0 0 0 40px; border: none; padding: 0px;&quot;&gt;&lt;div style=&quot;color: rgb(218, 218, 218); background-color: rgb(30, 30, 30); font-family: &amp;quot;Droid Sans Mono&amp;quot;, &amp;quot;monospace&amp;quot;, monospace; font-size: 14px; line-height: 19px;&quot;&gt;&lt;div&gt;&lt;span style=&quot;color: #4ec9b0;&quot;&gt;SDPatternOperator &lt;/span&gt;&lt;span style=&quot;color: #9cdcfe;&quot;&gt;node&lt;/span&gt; = &lt;span style=&quot;color: #9cdcfe;&quot;&gt;null_frag&lt;/span&gt;,&lt;/div&gt;&lt;/div&gt;&lt;/blockquote&gt;&lt;/blockquote&gt;&lt;/blockquote&gt;&lt;blockquote style=&quot;margin: 0 0 0 40px; border: none; padding: 0px;&quot;&gt;&lt;blockquote style=&quot;margin: 0 0 0 40px; border: none; padding: 0px;&quot;&gt;&lt;blockquote style=&quot;margin: 0 0 0 40px; border: none; padding: 0px;&quot;&gt;&lt;div style=&quot;color: rgb(218, 218, 218); background-color: rgb(30, 30, 30); font-family: &amp;quot;Droid Sans Mono&amp;quot;, &amp;quot;monospace&amp;quot;, monospace; font-size: 14px; line-height: 19px;&quot;&gt;&lt;div&gt;&lt;span style=&quot;color: #4ec9b0;&quot;&gt;string&lt;/span&gt; &lt;span style=&quot;color: #9cdcfe;&quot;&gt;revOp&lt;/span&gt; = &lt;span style=&quot;color: #9cdcfe;&quot;&gt;opName&lt;/span&gt;,&lt;/div&gt;&lt;/div&gt;&lt;/blockquote&gt;&lt;/blockquote&gt;&lt;/blockquote&gt;&lt;blockquote style=&quot;margin: 0 0 0 40px; border: none; padding: 0px;&quot;&gt;&lt;blockquote style=&quot;margin: 0 0 0 40px; border: none; padding: 0px;&quot;&gt;&lt;blockquote style=&quot;margin: 0 0 0 40px; border: none; padding: 0px;&quot;&gt;&lt;div style=&quot;color: rgb(218, 218, 218); background-color: rgb(30, 30, 30); font-family: &amp;quot;Droid Sans Mono&amp;quot;, &amp;quot;monospace&amp;quot;, monospace; font-size: 14px; line-height: 19px;&quot;&gt;&lt;div&gt;&lt;span style=&quot;color: #4ec9b0;&quot;&gt;bit&lt;/span&gt; &lt;span style=&quot;color: #9cdcfe;&quot;&gt;GFX9Renamed&lt;/span&gt; = &lt;span style=&quot;color: #b5cea8;&quot;&gt;0&lt;/span&gt;&amp;gt; :&lt;/div&gt;&lt;/div&gt;&lt;/blockquote&gt;&lt;/blockquote&gt;&lt;/blockquote&gt;&lt;/blockquote&gt;&lt;span style=&quot;background-color: rgb(30, 30, 30); font-family: &amp;quot;Droid Sans Mono&amp;quot;, &amp;quot;monospace&amp;quot;, monospace; font-size: 14px; color: rgb(78, 201, 176);&quot;&gt;VOP2Inst_e32&lt;/span&gt;&lt;span style=&quot;background-color: rgb(30, 30, 30); color: rgb(218, 218, 218); font-family: &amp;quot;Droid Sans Mono&amp;quot;, &amp;quot;monospace&amp;quot;, monospace; font-size: 14px;&quot;&gt;&amp;lt;&lt;/span&gt;&lt;span style=&quot;background-color: rgb(30, 30, 30); font-family: &amp;quot;Droid Sans Mono&amp;quot;, &amp;quot;monospace&amp;quot;, monospace; font-size: 14px; color: rgb(156, 220, 254);&quot;&gt;opName&lt;/span&gt;&lt;span style=&quot;background-color: rgb(30, 30, 30); color: rgb(218, 218, 218); font-family: &amp;quot;Droid Sans Mono&amp;quot;, &amp;quot;monospace&amp;quot;, monospace; font-size: 14px;&quot;&gt;, &lt;/span&gt;&lt;span style=&quot;background-color: rgb(30, 30, 30); font-family: &amp;quot;Droid Sans Mono&amp;quot;, &amp;quot;monospace&amp;quot;, monospace; font-size: 14px; color: rgb(156, 220, 254);&quot;&gt;P&lt;/span&gt;&lt;span style=&quot;background-color: rgb(30, 30, 30); color: rgb(218, 218, 218); font-family: &amp;quot;Droid Sans Mono&amp;quot;, &amp;quot;monospace&amp;quot;, monospace; font-size: 14px;&quot;&gt;, &lt;/span&gt;&lt;span style=&quot;background-color: rgb(30, 30, 30); font-family: &amp;quot;Droid Sans Mono&amp;quot;, &amp;quot;monospace&amp;quot;, monospace; font-size: 14px; color: rgb(156, 220, 254);&quot;&gt;node&lt;/span&gt;&lt;span style=&quot;background-color: rgb(30, 30, 30); color: rgb(218, 218, 218); font-family: &amp;quot;Droid Sans Mono&amp;quot;, &amp;quot;monospace&amp;quot;, monospace; font-size: 14px;&quot;&gt;, &lt;/span&gt;&lt;span style=&quot;background-color: rgb(30, 30, 30); font-family: &amp;quot;Droid Sans Mono&amp;quot;, &amp;quot;monospace&amp;quot;, monospace; font-size: 14px; color: rgb(156, 220, 254);&quot;&gt;revOp&lt;/span&gt;&lt;span style=&quot;background-color: rgb(30, 30, 30); color: rgb(218, 218, 218); font-family: &amp;quot;Droid Sans Mono&amp;quot;, &amp;quot;monospace&amp;quot;, monospace; font-size: 14px;&quot;&gt;, &lt;/span&gt;&lt;span style=&quot;background-color: rgb(30, 30, 30); font-family: &amp;quot;Droid Sans Mono&amp;quot;, &amp;quot;monospace&amp;quot;, monospace; font-size: 14px; color: rgb(156, 220, 254);&quot;&gt;GFX9Renamed&lt;/span&gt;&lt;span style=&quot;background-color: rgb(30, 30, 30); color: rgb(218, 218, 218); font-family: &amp;quot;Droid Sans Mono&amp;quot;, &amp;quot;monospace&amp;quot;, monospace; font-size: 14px;&quot;&gt;&amp;gt;,&lt;/span&gt;&lt;br&gt;&lt;span style=&quot;background-color: rgb(30, 30, 30); font-family: &amp;quot;Droid Sans Mono&amp;quot;, &amp;quot;monospace&amp;quot;, monospace; font-size: 14px; color: rgb(78, 201, 176);&quot;&gt;VOP2Inst_e64&lt;/span&gt;&lt;span style=&quot;background-color: rgb(30, 30, 30); color: rgb(218, 218, 218); font-family: &amp;quot;Droid Sans Mono&amp;quot;, &amp;quot;monospace&amp;quot;, monospace; font-size: 14px;&quot;&gt;&amp;lt;&lt;/span&gt;&lt;span style=&quot;background-color: rgb(30, 30, 30); font-family: &amp;quot;Droid Sans Mono&amp;quot;, &amp;quot;monospace&amp;quot;, monospace; font-size: 14px; color: rgb(156, 220, 254);&quot;&gt;opName&lt;/span&gt;&lt;span style=&quot;background-color: rgb(30, 30, 30); color: rgb(218, 218, 218); font-family: &amp;quot;Droid Sans Mono&amp;quot;, &amp;quot;monospace&amp;quot;, monospace; font-size: 14px;&quot;&gt;, &lt;/span&gt;&lt;span style=&quot;background-color: rgb(30, 30, 30); font-family: &amp;quot;Droid Sans Mono&amp;quot;, &amp;quot;monospace&amp;quot;, monospace; font-size: 14px; color: rgb(156, 220, 254);&quot;&gt;P&lt;/span&gt;&lt;span style=&quot;background-color: rgb(30, 30, 30); color: rgb(218, 218, 218); font-family: &amp;quot;Droid Sans Mono&amp;quot;, &amp;quot;monospace&amp;quot;, monospace; font-size: 14px;&quot;&gt;, &lt;/span&gt;&lt;span style=&quot;background-color: rgb(30, 30, 30); font-family: &amp;quot;Droid Sans Mono&amp;quot;, &amp;quot;monospace&amp;quot;, monospace; font-size: 14px; color: rgb(156, 220, 254);&quot;&gt;node&lt;/span&gt;&lt;span style=&quot;background-color: rgb(30, 30, 30); color: rgb(218, 218, 218); font-family: &amp;quot;Droid Sans Mono&amp;quot;, &amp;quot;monospace&amp;quot;, monospace; font-size: 14px;&quot;&gt;, &lt;/span&gt;&lt;span style=&quot;background-color: rgb(30, 30, 30); font-family: &amp;quot;Droid Sans Mono&amp;quot;, &amp;quot;monospace&amp;quot;, monospace; font-size: 14px; color: rgb(156, 220, 254);&quot;&gt;revOp&lt;/span&gt;&lt;span style=&quot;background-color: rgb(30, 30, 30); color: rgb(218, 218, 218); font-family: &amp;quot;Droid Sans Mono&amp;quot;, &amp;quot;monospace&amp;quot;, monospace; font-size: 14px;&quot;&gt;, &lt;/span&gt;&lt;span style=&quot;background-color: rgb(30, 30, 30); font-family: &amp;quot;Droid Sans Mono&amp;quot;, &amp;quot;monospace&amp;quot;, monospace; font-size: 14px; color: rgb(156, 220, 254);&quot;&gt;GFX9Renamed&lt;/span&gt;&lt;span style=&quot;background-color: rgb(30, 30, 30); color: rgb(218, 218, 218); font-family: &amp;quot;Droid Sans Mono&amp;quot;, &amp;quot;monospace&amp;quot;, monospace; font-size: 14px;&quot;&gt;&amp;gt;,&lt;/span&gt;&lt;br&gt;&lt;div style=&quot;color: rgb(218, 218, 218); background-color: rgb(30, 30, 30); font-family: &amp;quot;Droid Sans Mono&amp;quot;, &amp;quot;monospace&amp;quot;, monospace; font-size: 14px; line-height: 19px;&quot;&gt;&lt;div&gt;&lt;span style=&quot;color: #4ec9b0;&quot;&gt;VOP2Inst_sdwa&lt;/span&gt;&amp;lt;&lt;span style=&quot;color: #9cdcfe;&quot;&gt;opName&lt;/span&gt;, &lt;span style=&quot;color: #9cdcfe;&quot;&gt;P&lt;/span&gt;, &lt;span style=&quot;color: #9cdcfe;&quot;&gt;GFX9Renamed&lt;/span&gt;&amp;gt; {&lt;/div&gt;&lt;/div&gt;&lt;blockquote style=&quot;margin: 0 0 0 40px; border: none; padding: 0px;&quot;&gt;&lt;div style=&quot;color: rgb(218, 218, 218); background-color: rgb(30, 30, 30); font-family: &amp;quot;Droid Sans Mono&amp;quot;, &amp;quot;monospace&amp;quot;, monospace; font-size: 14px; line-height: 19px;&quot;&gt;&lt;div&gt;&lt;span style=&quot;color: #569cd6;&quot;&gt;let&lt;/span&gt; &lt;span style=&quot;color: #9cdcfe;&quot;&gt;renamedInGFX9&lt;/span&gt; = &lt;span style=&quot;color: #9cdcfe;&quot;&gt;GFX9Renamed&lt;/span&gt; &lt;span style=&quot;color: #569cd6;&quot;&gt;in&lt;/span&gt; {&lt;/div&gt;&lt;/div&gt;&lt;/blockquote&gt;&lt;blockquote style=&quot;margin: 0 0 0 40px; border: none; padding: 0px;&quot;&gt;&lt;blockquote style=&quot;margin: 0 0 0 40px; border: none; padding: 0px;&quot;&gt;&lt;div style=&quot;color: rgb(218, 218, 218); background-color: rgb(30, 30, 30); font-family: &amp;quot;Droid Sans Mono&amp;quot;, &amp;quot;monospace&amp;quot;, monospace; font-size: 14px; line-height: 19px;&quot;&gt;&lt;div&gt;&lt;span style=&quot;color: #569cd6;&quot;&gt;if&lt;/span&gt; &lt;span style=&quot;color: #9cdcfe;&quot;&gt;P&lt;/span&gt;.&lt;span style=&quot;color: #9cdcfe;&quot;&gt;HasExtDPP&lt;/span&gt; &lt;span style=&quot;color: #569cd6;&quot;&gt;then&lt;/span&gt;&lt;/div&gt;&lt;/div&gt;&lt;/blockquote&gt;&lt;/blockquote&gt;&lt;blockquote style=&quot;margin: 0 0 0 40px; border: none; padding: 0px;&quot;&gt;&lt;blockquote style=&quot;margin: 0 0 0 40px; border: none; padding: 0px;&quot;&gt;&lt;blockquote style=&quot;margin: 0 0 0 40px; border: none; padding: 0px;&quot;&gt;&lt;div style=&quot;color: rgb(218, 218, 218); background-color: rgb(30, 30, 30); font-family: &amp;quot;Droid Sans Mono&amp;quot;, &amp;quot;monospace&amp;quot;, monospace; font-size: 14px; line-height: 19px;&quot;&gt;&lt;div&gt;&lt;span style=&quot;color: #569cd6;&quot;&gt;def&lt;/span&gt; &lt;span style=&quot;color: #9cdcfe;&quot;&gt;_dpp&lt;/span&gt;  : &lt;span style=&quot;color: #4ec9b0;&quot;&gt;VOP2_DPP_Pseudo&lt;/span&gt; &amp;lt;&lt;span style=&quot;color: #9cdcfe;&quot;&gt;opName&lt;/span&gt;, &lt;span style=&quot;color: #9cdcfe;&quot;&gt;P&lt;/span&gt;&amp;gt;;&lt;/div&gt;&lt;/div&gt;&lt;/blockquote&gt;&lt;/blockquote&gt;&lt;/blockquote&gt;&lt;blockquote style=&quot;margin: 0 0 0 40px; border: none; padding: 0px;&quot;&gt;&lt;div style=&quot;color: rgb(218, 218, 218); background-color: rgb(30, 30, 30); font-family: &amp;quot;Droid Sans Mono&amp;quot;, &amp;quot;monospace&amp;quot;, monospace; font-size: 14px; line-height: 19px;&quot;&gt;&lt;div&gt;  }&lt;/div&gt;&lt;/div&gt;&lt;/blockquote&gt;&lt;div style=&quot;color: rgb(218, 218, 218); background-color: rgb(30, 30, 30); font-family: &amp;quot;Droid Sans Mono&amp;quot;, &amp;quot;monospace&amp;quot;, monospace; font-size: 14px; line-height: 19px;&quot;&gt;&lt;div&gt;}&lt;/div&gt;&lt;br&gt;&lt;/div&gt;" style="text;html=1;align=left;verticalAlign=middle;resizable=0;points=[];autosize=1;strokeColor=none;fillColor=none;" vertex="1" parent="1">
                    <mxGeometry x="220" y="405" width="480" height="330" as="geometry"/>
                </mxCell>
                <mxCell id="22" style="edgeStyle=none;html=1;" edge="1" parent="1" source="23" target="39">
                    <mxGeometry relative="1" as="geometry"/>
                </mxCell>
                <mxCell id="23" value="&lt;div style=&quot;color: rgb(218, 218, 218); background-color: rgb(30, 30, 30); font-family: &amp;quot;Droid Sans Mono&amp;quot;, &amp;quot;monospace&amp;quot;, monospace; font-size: 14px; line-height: 19px;&quot;&gt;&lt;div&gt;&lt;div style=&quot;line-height: 19px;&quot;&gt;&lt;div&gt;&lt;span style=&quot;color: #57a64a;&quot;&gt;// opName = &quot;v_xnor_b32&quot;&lt;/span&gt;&lt;/div&gt;&lt;div&gt;&lt;span style=&quot;color: #57a64a;&quot;&gt;// P = VOP_I32_I32_I32&lt;/span&gt;&lt;/div&gt;&lt;div&gt;&lt;span style=&quot;color: #57a64a;&quot;&gt;// node = xnor&lt;/span&gt;&lt;/div&gt;&lt;/div&gt;&lt;/div&gt;&lt;div&gt;&lt;span style=&quot;color: #569cd6;&quot;&gt;multiclass&lt;/span&gt; &lt;span style=&quot;color: #4ec9b0;&quot;&gt;VOP2Inst_e32&lt;/span&gt;&amp;lt;&lt;span style=&quot;color: #4ec9b0;&quot;&gt;string&lt;/span&gt; &lt;span style=&quot;color: #9cdcfe;&quot;&gt;opName&lt;/span&gt;,&lt;/div&gt;&lt;/div&gt;&lt;blockquote style=&quot;margin: 0 0 0 40px; border: none; padding: 0px;&quot;&gt;&lt;blockquote style=&quot;margin: 0 0 0 40px; border: none; padding: 0px;&quot;&gt;&lt;blockquote style=&quot;margin: 0 0 0 40px; border: none; padding: 0px;&quot;&gt;&lt;blockquote style=&quot;margin: 0 0 0 40px; border: none; padding: 0px;&quot;&gt;&lt;blockquote style=&quot;margin: 0 0 0 40px; border: none; padding: 0px;&quot;&gt;&lt;div style=&quot;color: rgb(218, 218, 218); background-color: rgb(30, 30, 30); font-family: &amp;quot;Droid Sans Mono&amp;quot;, &amp;quot;monospace&amp;quot;, monospace; font-size: 14px; line-height: 19px;&quot;&gt;&lt;div&gt;&lt;span style=&quot;color: #4ec9b0;&quot;&gt;VOPProfile &lt;/span&gt;&lt;span style=&quot;color: #9cdcfe;&quot;&gt;P&lt;/span&gt;,&lt;/div&gt;&lt;/div&gt;&lt;/blockquote&gt;&lt;/blockquote&gt;&lt;/blockquote&gt;&lt;/blockquote&gt;&lt;blockquote style=&quot;margin: 0 0 0 40px; border: none; padding: 0px;&quot;&gt;&lt;blockquote style=&quot;margin: 0 0 0 40px; border: none; padding: 0px;&quot;&gt;&lt;blockquote style=&quot;margin: 0 0 0 40px; border: none; padding: 0px;&quot;&gt;&lt;blockquote style=&quot;margin: 0 0 0 40px; border: none; padding: 0px;&quot;&gt;&lt;div style=&quot;color: rgb(218, 218, 218); background-color: rgb(30, 30, 30); font-family: &amp;quot;Droid Sans Mono&amp;quot;, &amp;quot;monospace&amp;quot;, monospace; font-size: 14px; line-height: 19px;&quot;&gt;&lt;div&gt;&lt;span style=&quot;color: #4ec9b0;&quot;&gt;SDPatternOperator &lt;/span&gt;&lt;span style=&quot;color: #9cdcfe;&quot;&gt;node&lt;/span&gt; = &lt;span style=&quot;color: #9cdcfe;&quot;&gt;null_frag&lt;/span&gt;,&lt;/div&gt;&lt;/div&gt;&lt;/blockquote&gt;&lt;/blockquote&gt;&lt;/blockquote&gt;&lt;/blockquote&gt;&lt;blockquote style=&quot;margin: 0 0 0 40px; border: none; padding: 0px;&quot;&gt;&lt;blockquote style=&quot;margin: 0 0 0 40px; border: none; padding: 0px;&quot;&gt;&lt;blockquote style=&quot;margin: 0 0 0 40px; border: none; padding: 0px;&quot;&gt;&lt;blockquote style=&quot;margin: 0 0 0 40px; border: none; padding: 0px;&quot;&gt;&lt;div style=&quot;color: rgb(218, 218, 218); background-color: rgb(30, 30, 30); font-family: &amp;quot;Droid Sans Mono&amp;quot;, &amp;quot;monospace&amp;quot;, monospace; font-size: 14px; line-height: 19px;&quot;&gt;&lt;div&gt;&lt;span style=&quot;color: #4ec9b0;&quot;&gt;string&lt;/span&gt; &lt;span style=&quot;color: #9cdcfe;&quot;&gt;revOp&lt;/span&gt; = &lt;span style=&quot;color: #9cdcfe;&quot;&gt;opName&lt;/span&gt;,&lt;/div&gt;&lt;/div&gt;&lt;/blockquote&gt;&lt;/blockquote&gt;&lt;/blockquote&gt;&lt;/blockquote&gt;&lt;blockquote style=&quot;margin: 0 0 0 40px; border: none; padding: 0px;&quot;&gt;&lt;blockquote style=&quot;margin: 0 0 0 40px; border: none; padding: 0px;&quot;&gt;&lt;blockquote style=&quot;margin: 0 0 0 40px; border: none; padding: 0px;&quot;&gt;&lt;blockquote style=&quot;margin: 0 0 0 40px; border: none; padding: 0px;&quot;&gt;&lt;div style=&quot;color: rgb(218, 218, 218); background-color: rgb(30, 30, 30); font-family: &amp;quot;Droid Sans Mono&amp;quot;, &amp;quot;monospace&amp;quot;, monospace; font-size: 14px; line-height: 19px;&quot;&gt;&lt;div&gt;&lt;span style=&quot;color: #4ec9b0;&quot;&gt;bit&lt;/span&gt; &lt;span style=&quot;color: #9cdcfe;&quot;&gt;GFX9Renamed&lt;/span&gt; = &lt;span style=&quot;color: #b5cea8;&quot;&gt;0&lt;/span&gt;&amp;gt; {&lt;/div&gt;&lt;/div&gt;&lt;/blockquote&gt;&lt;/blockquote&gt;&lt;/blockquote&gt;&lt;/blockquote&gt;&lt;/blockquote&gt;&lt;blockquote style=&quot;margin: 0 0 0 40px; border: none; padding: 0px;&quot;&gt;&lt;div style=&quot;color: rgb(218, 218, 218); background-color: rgb(30, 30, 30); font-family: &amp;quot;Droid Sans Mono&amp;quot;, &amp;quot;monospace&amp;quot;, monospace; font-size: 14px; line-height: 19px;&quot;&gt;&lt;div&gt;&lt;span style=&quot;color: #569cd6;&quot;&gt;let&lt;/span&gt; &lt;span style=&quot;color: #9cdcfe;&quot;&gt;renamedInGFX9&lt;/span&gt; = &lt;span style=&quot;color: #9cdcfe;&quot;&gt;GFX9Renamed&lt;/span&gt; &lt;span style=&quot;color: #569cd6;&quot;&gt;in&lt;/span&gt; {&lt;/div&gt;&lt;/div&gt;&lt;/blockquote&gt;&lt;blockquote style=&quot;margin: 0 0 0 40px; border: none; padding: 0px;&quot;&gt;&lt;blockquote style=&quot;margin: 0 0 0 40px; border: none; padding: 0px;&quot;&gt;&lt;div style=&quot;color: rgb(218, 218, 218); background-color: rgb(30, 30, 30); font-family: &amp;quot;Droid Sans Mono&amp;quot;, &amp;quot;monospace&amp;quot;, monospace; font-size: 14px; line-height: 19px;&quot;&gt;&lt;div&gt;&lt;span style=&quot;color: rgb(87, 166, 74);&quot;&gt;// The name of the record is V_XNOR_B32_e32&lt;/span&gt;&lt;br&gt;&lt;/div&gt;&lt;/div&gt;&lt;/blockquote&gt;&lt;/blockquote&gt;&lt;blockquote style=&quot;margin: 0 0 0 40px; border: none; padding: 0px;&quot;&gt;&lt;blockquote style=&quot;margin: 0 0 0 40px; border: none; padding: 0px;&quot;&gt;&lt;div style=&quot;color: rgb(218, 218, 218); background-color: rgb(30, 30, 30); font-family: &amp;quot;Droid Sans Mono&amp;quot;, &amp;quot;monospace&amp;quot;, monospace; font-size: 14px; line-height: 19px;&quot;&gt;&lt;div&gt;&lt;span style=&quot;color: #569cd6;&quot;&gt;def&lt;/span&gt; &lt;span style=&quot;color: #9cdcfe;&quot;&gt;_e32&lt;/span&gt; : &lt;span style=&quot;color: #4ec9b0;&quot;&gt;VOP2_Pseudo&lt;/span&gt; &amp;lt;&lt;span style=&quot;color: #9cdcfe;&quot;&gt;opName&lt;/span&gt;, &lt;span style=&quot;color: #9cdcfe;&quot;&gt;P&lt;/span&gt;, &lt;span style=&quot;color: #4ec9b0;&quot;&gt;VOPPatOrNull&lt;/span&gt;&amp;lt;&lt;span style=&quot;color: #9cdcfe;&quot;&gt;node&lt;/span&gt;,&lt;span style=&quot;color: #9cdcfe;&quot;&gt;P&lt;/span&gt;&amp;gt;.&lt;span style=&quot;color: #9cdcfe;&quot;&gt;ret&lt;/span&gt;&amp;gt;,&lt;/div&gt;&lt;/div&gt;&lt;/blockquote&gt;&lt;/blockquote&gt;&lt;blockquote style=&quot;margin: 0 0 0 40px; border: none; padding: 0px;&quot;&gt;&lt;blockquote style=&quot;margin: 0 0 0 40px; border: none; padding: 0px;&quot;&gt;&lt;blockquote style=&quot;margin: 0 0 0 40px; border: none; padding: 0px;&quot;&gt;&lt;blockquote style=&quot;margin: 0 0 0 40px; border: none; padding: 0px;&quot;&gt;&lt;div style=&quot;color: rgb(218, 218, 218); background-color: rgb(30, 30, 30); font-family: &amp;quot;Droid Sans Mono&amp;quot;, &amp;quot;monospace&amp;quot;, monospace; font-size: 14px; line-height: 19px;&quot;&gt;&lt;div&gt;&lt;span style=&quot;color: #4ec9b0;&quot;&gt;Commutable_REV&lt;/span&gt;&amp;lt;&lt;span style=&quot;color: #9cdcfe;&quot;&gt;revOp&lt;/span&gt;#&lt;span style=&quot;color: #e8c9bb;&quot;&gt;&quot;&lt;/span&gt;&lt;span style=&quot;color: #ce9178;&quot;&gt;_e32&lt;/span&gt;&lt;span style=&quot;color: #e8c9bb;&quot;&gt;&quot;&lt;/span&gt;, &lt;span style=&quot;color: #dcdcaa;&quot;&gt;!eq&lt;/span&gt;(&lt;span style=&quot;color: #9cdcfe;&quot;&gt;revOp&lt;/span&gt;, &lt;span style=&quot;color: #9cdcfe;&quot;&gt;opName&lt;/span&gt;)&amp;gt;;&lt;/div&gt;&lt;/div&gt;&lt;/blockquote&gt;&lt;/blockquote&gt;&lt;/blockquote&gt;&lt;/blockquote&gt;&lt;blockquote style=&quot;margin: 0 0 0 40px; border: none; padding: 0px;&quot;&gt;&lt;div style=&quot;color: rgb(218, 218, 218); background-color: rgb(30, 30, 30); font-family: &amp;quot;Droid Sans Mono&amp;quot;, &amp;quot;monospace&amp;quot;, monospace; font-size: 14px; line-height: 19px;&quot;&gt;&lt;div&gt;  } &lt;span style=&quot;color: #57a64a;&quot;&gt;// End renamedInGFX9 = GFX9Renamed&lt;/span&gt;&lt;/div&gt;&lt;/div&gt;&lt;/blockquote&gt;&lt;div style=&quot;color: rgb(218, 218, 218); background-color: rgb(30, 30, 30); font-family: &amp;quot;Droid Sans Mono&amp;quot;, &amp;quot;monospace&amp;quot;, monospace; font-size: 14px; line-height: 19px;&quot;&gt;&lt;div&gt;}&lt;/div&gt;&lt;/div&gt;" style="text;html=1;align=left;verticalAlign=middle;resizable=0;points=[];autosize=1;strokeColor=none;fillColor=none;" vertex="1" parent="1">
                    <mxGeometry x="950" y="695" width="620" height="280" as="geometry"/>
                </mxCell>
                <mxCell id="24" style="edgeStyle=none;html=1;" edge="1" parent="1" source="25" target="8">
                    <mxGeometry relative="1" as="geometry"/>
                </mxCell>
                <mxCell id="25" value="&lt;div style=&quot;color: rgb(218, 218, 218); background-color: rgb(30, 30, 30); font-family: &amp;quot;Droid Sans Mono&amp;quot;, &amp;quot;monospace&amp;quot;, monospace; font-size: 14px; line-height: 19px;&quot;&gt;&lt;div&gt;&lt;span style=&quot;color: #569cd6;&quot;&gt;def&lt;/span&gt; &lt;span style=&quot;color: #9cdcfe;&quot;&gt;PatGenMode&lt;/span&gt; {&lt;/div&gt;&lt;/div&gt;&lt;blockquote style=&quot;margin: 0 0 0 40px; border: none; padding: 0px;&quot;&gt;&lt;div style=&quot;color: rgb(218, 218, 218); background-color: rgb(30, 30, 30); font-family: &amp;quot;Droid Sans Mono&amp;quot;, &amp;quot;monospace&amp;quot;, monospace; font-size: 14px; line-height: 19px;&quot;&gt;&lt;div&gt;&lt;span style=&quot;color: #4ec9b0;&quot;&gt;int&lt;/span&gt; &lt;span style=&quot;color: #9cdcfe;&quot;&gt;NoPattern&lt;/span&gt; = &lt;span style=&quot;color: #b5cea8;&quot;&gt;0&lt;/span&gt;;&lt;/div&gt;&lt;/div&gt;&lt;div style=&quot;color: rgb(218, 218, 218); background-color: rgb(30, 30, 30); font-family: &amp;quot;Droid Sans Mono&amp;quot;, &amp;quot;monospace&amp;quot;, monospace; font-size: 14px; line-height: 19px;&quot;&gt;&lt;div&gt;&lt;span style=&quot;color: #4ec9b0;&quot;&gt;int&lt;/span&gt; &lt;span style=&quot;color: #9cdcfe;&quot;&gt;Pattern&lt;/span&gt;   = &lt;span style=&quot;color: #b5cea8;&quot;&gt;1&lt;/span&gt;;&lt;/div&gt;&lt;/div&gt;&lt;/blockquote&gt;&lt;div style=&quot;color: rgb(218, 218, 218); background-color: rgb(30, 30, 30); font-family: &amp;quot;Droid Sans Mono&amp;quot;, &amp;quot;monospace&amp;quot;, monospace; font-size: 14px; line-height: 19px;&quot;&gt;&lt;div&gt;}&lt;/div&gt;&lt;/div&gt;" style="text;html=1;align=left;verticalAlign=middle;resizable=0;points=[];autosize=1;strokeColor=none;fillColor=none;" vertex="1" parent="1">
                    <mxGeometry x="-760" y="-910" width="210" height="90" as="geometry"/>
                </mxCell>
                <mxCell id="26" style="edgeStyle=none;html=1;entryX=0.617;entryY=-0.011;entryDx=0;entryDy=0;entryPerimeter=0;" edge="1" parent="1" source="27" target="23">
                    <mxGeometry relative="1" as="geometry"/>
                </mxCell>
                <mxCell id="27" value="&lt;div style=&quot;color: rgb(218, 218, 218); background-color: rgb(30, 30, 30); font-family: &amp;quot;Droid Sans Mono&amp;quot;, &amp;quot;monospace&amp;quot;, monospace; font-size: 14px; line-height: 19px;&quot;&gt;&lt;div&gt;&lt;span style=&quot;color: #57a64a;&quot;&gt;// Op = xnor&lt;/span&gt;&lt;/div&gt;&lt;div&gt;&lt;span style=&quot;color: #57a64a;&quot;&gt;// P = VOP_I32_I32_I32;&lt;/span&gt;&lt;/div&gt;&lt;div&gt;&lt;span style=&quot;color: #57a64a;&quot;&gt;// VOP_I32_I32_I32.NeedPatGen == 0 == PatGenMode.NoPattern, thus ret = []&lt;/span&gt;&lt;/div&gt;&lt;div&gt;&lt;span style=&quot;color: #569cd6;&quot;&gt;class&lt;/span&gt; &lt;span style=&quot;color: #4ec9b0;&quot;&gt;VOPPatOrNull&lt;/span&gt;&amp;lt;&lt;span style=&quot;color: #4ec9b0;&quot;&gt;SDPatternOperator &lt;/span&gt;&lt;span style=&quot;color: #9cdcfe;&quot;&gt;Op&lt;/span&gt;, &lt;span style=&quot;color: #4ec9b0;&quot;&gt;VOPProfile &lt;/span&gt;&lt;span style=&quot;color: #9cdcfe;&quot;&gt;P&lt;/span&gt;&amp;gt; {&lt;/div&gt;&lt;/div&gt;&lt;blockquote style=&quot;margin: 0 0 0 40px; border: none; padding: 0px;&quot;&gt;&lt;div style=&quot;color: rgb(218, 218, 218); background-color: rgb(30, 30, 30); font-family: &amp;quot;Droid Sans Mono&amp;quot;, &amp;quot;monospace&amp;quot;, monospace; font-size: 14px; line-height: 19px;&quot;&gt;&lt;div&gt;&lt;span style=&quot;color: #4ec9b0;&quot;&gt;list&lt;/span&gt;&amp;lt;&lt;span style=&quot;color: #4ec9b0;&quot;&gt;dag&lt;/span&gt;&amp;gt; &lt;span style=&quot;color: #9cdcfe;&quot;&gt;ret&lt;/span&gt; = &lt;span style=&quot;color: #dcdcaa;&quot;&gt;!if&lt;/span&gt;(&lt;span style=&quot;color: #dcdcaa;&quot;&gt;!ne&lt;/span&gt;(&lt;span style=&quot;color: #9cdcfe;&quot;&gt;P&lt;/span&gt;.&lt;span style=&quot;color: #9cdcfe;&quot;&gt;NeedPatGen&lt;/span&gt;,&lt;span style=&quot;color: #9cdcfe;&quot;&gt;PatGenMode&lt;/span&gt;.&lt;span style=&quot;color: #9cdcfe;&quot;&gt;NoPattern&lt;/span&gt;), &lt;span style=&quot;color: #4ec9b0;&quot;&gt;VOPPatGen&lt;/span&gt;&amp;lt;&lt;span style=&quot;color: #9cdcfe;&quot;&gt;Op&lt;/span&gt;, &lt;span style=&quot;color: #9cdcfe;&quot;&gt;P&lt;/span&gt;&amp;gt;.&lt;span style=&quot;color: #9cdcfe;&quot;&gt;ret&lt;/span&gt;, []);&lt;/div&gt;&lt;/div&gt;&lt;/blockquote&gt;&lt;div style=&quot;color: rgb(218, 218, 218); background-color: rgb(30, 30, 30); font-family: &amp;quot;Droid Sans Mono&amp;quot;, &amp;quot;monospace&amp;quot;, monospace; font-size: 14px; line-height: 19px;&quot;&gt;&lt;div&gt;}&lt;/div&gt;&lt;/div&gt;" style="text;html=1;align=left;verticalAlign=middle;resizable=0;points=[];autosize=1;strokeColor=none;fillColor=none;" vertex="1" parent="1">
                    <mxGeometry x="938" y="460" width="790" height="130" as="geometry"/>
                </mxCell>
                <mxCell id="28" style="edgeStyle=none;html=1;" edge="1" parent="1" source="29" target="8">
                    <mxGeometry relative="1" as="geometry"/>
                </mxCell>
                <mxCell id="29" value="&lt;div style=&quot;color: rgb(218, 218, 218); background-color: rgb(30, 30, 30); font-family: &amp;quot;Droid Sans Mono&amp;quot;, &amp;quot;monospace&amp;quot;, monospace; font-size: 14px; line-height: 19px;&quot;&gt;&lt;div&gt;&lt;span style=&quot;color: #57a64a;&quot;&gt;// VT = i32&lt;/span&gt;&lt;/div&gt;&lt;div&gt;&lt;span style=&quot;color: #57a64a;&quot;&gt;// IsTrue16 = 0&lt;/span&gt;&lt;/div&gt;&lt;div&gt;&lt;span style=&quot;color: #57a64a;&quot;&gt;// i32.value != v2i16.value, thus ret = VSrc_b32 (vreg or imm)&lt;/span&gt;&lt;/div&gt;&lt;div&gt;&lt;span style=&quot;color: #569cd6;&quot;&gt;class&lt;/span&gt; &lt;span style=&quot;color: #4ec9b0;&quot;&gt;getVOPSrc0ForVT&lt;/span&gt;&amp;lt;&lt;span style=&quot;color: #4ec9b0;&quot;&gt;ValueType &lt;/span&gt;&lt;span style=&quot;color: #9cdcfe;&quot;&gt;VT&lt;/span&gt;, &lt;span style=&quot;color: #4ec9b0;&quot;&gt;bit&lt;/span&gt; &lt;span style=&quot;color: #9cdcfe;&quot;&gt;IsTrue16&lt;/span&gt;&amp;gt; {&lt;/div&gt;&lt;/div&gt;&lt;blockquote style=&quot;margin: 0 0 0 40px; border: none; padding: 0px;&quot;&gt;&lt;div style=&quot;color: rgb(218, 218, 218); background-color: rgb(30, 30, 30); font-family: &amp;quot;Droid Sans Mono&amp;quot;, &amp;quot;monospace&amp;quot;, monospace; font-size: 14px; line-height: 19px;&quot;&gt;&lt;div&gt;&lt;span style=&quot;color: #57a64a;&quot;&gt;// isFP = 0&lt;/span&gt;&lt;/div&gt;&lt;/div&gt;&lt;div style=&quot;color: rgb(218, 218, 218); background-color: rgb(30, 30, 30); font-family: &amp;quot;Droid Sans Mono&amp;quot;, &amp;quot;monospace&amp;quot;, monospace; font-size: 14px; line-height: 19px;&quot;&gt;&lt;div&gt;&lt;span style=&quot;color: #4ec9b0;&quot;&gt;bit&lt;/span&gt; &lt;span style=&quot;color: #9cdcfe;&quot;&gt;isFP&lt;/span&gt; = &lt;span style=&quot;color: #4ec9b0;&quot;&gt;isFloatType&lt;/span&gt;&amp;lt;&lt;span style=&quot;color: #9cdcfe;&quot;&gt;VT&lt;/span&gt;&amp;gt;.&lt;span style=&quot;color: #9cdcfe;&quot;&gt;ret&lt;/span&gt;;&lt;/div&gt;&lt;/div&gt;&lt;/blockquote&gt;&lt;div style=&quot;color: rgb(218, 218, 218); background-color: rgb(30, 30, 30); font-family: &amp;quot;Droid Sans Mono&amp;quot;, &amp;quot;monospace&amp;quot;, monospace; font-size: 14px; line-height: 19px;&quot;&gt;&lt;br&gt;&lt;/div&gt;&lt;blockquote style=&quot;margin: 0 0 0 40px; border: none; padding: 0px;&quot;&gt;&lt;div style=&quot;color: rgb(218, 218, 218); background-color: rgb(30, 30, 30); font-family: &amp;quot;Droid Sans Mono&amp;quot;, &amp;quot;monospace&amp;quot;, monospace; font-size: 14px; line-height: 19px;&quot;&gt;&lt;div&gt;&lt;span style=&quot;color: #4ec9b0;&quot;&gt;RegisterOperand &lt;/span&gt;&lt;span style=&quot;color: #9cdcfe;&quot;&gt;ret&lt;/span&gt; = &lt;span style=&quot;color: #dcdcaa;&quot;&gt;!if&lt;/span&gt;(&lt;/div&gt;&lt;/div&gt;&lt;/blockquote&gt;&lt;blockquote style=&quot;margin: 0 0 0 40px; border: none; padding: 0px;&quot;&gt;&lt;blockquote style=&quot;margin: 0 0 0 40px; border: none; padding: 0px;&quot;&gt;&lt;div style=&quot;color: rgb(218, 218, 218); background-color: rgb(30, 30, 30); font-family: &amp;quot;Droid Sans Mono&amp;quot;, &amp;quot;monospace&amp;quot;, monospace; font-size: 14px; line-height: 19px;&quot;&gt;&lt;div&gt;&lt;span style=&quot;color: #9cdcfe;&quot;&gt;isFP&lt;/span&gt;, &lt;/div&gt;&lt;/div&gt;&lt;/blockquote&gt;&lt;blockquote style=&quot;margin: 0 0 0 40px; border: none; padding: 0px;&quot;&gt;&lt;div style=&quot;color: rgb(218, 218, 218); background-color: rgb(30, 30, 30); font-family: &amp;quot;Droid Sans Mono&amp;quot;, &amp;quot;monospace&amp;quot;, monospace; font-size: 14px; line-height: 19px;&quot;&gt;&lt;div&gt;        ...,&lt;/div&gt;&lt;/div&gt;&lt;/blockquote&gt;&lt;blockquote style=&quot;margin: 0 0 0 40px; border: none; padding: 0px;&quot;&gt;&lt;div style=&quot;color: rgb(218, 218, 218); background-color: rgb(30, 30, 30); font-family: &amp;quot;Droid Sans Mono&amp;quot;, &amp;quot;monospace&amp;quot;, monospace; font-size: 14px; line-height: 19px;&quot;&gt;&lt;div&gt;&lt;span style=&quot;color: #dcdcaa;&quot;&gt;!if&lt;/span&gt;(&lt;/div&gt;&lt;/div&gt;&lt;/blockquote&gt;&lt;/blockquote&gt;&lt;blockquote style=&quot;margin: 0 0 0 40px; border: none; padding: 0px;&quot;&gt;&lt;blockquote style=&quot;margin: 0 0 0 40px; border: none; padding: 0px;&quot;&gt;&lt;blockquote style=&quot;margin: 0 0 0 40px; border: none; padding: 0px;&quot;&gt;&lt;div style=&quot;color: rgb(218, 218, 218); background-color: rgb(30, 30, 30); font-family: &amp;quot;Droid Sans Mono&amp;quot;, &amp;quot;monospace&amp;quot;, monospace; font-size: 14px; line-height: 19px;&quot;&gt;&lt;div&gt;&lt;span style=&quot;color: #dcdcaa;&quot;&gt;!eq&lt;/span&gt;(&lt;span style=&quot;color: #9cdcfe;&quot;&gt;VT&lt;/span&gt;.&lt;span style=&quot;color: #9cdcfe;&quot;&gt;Size&lt;/span&gt;, &lt;span style=&quot;color: #b5cea8;&quot;&gt;64&lt;/span&gt;),&lt;/div&gt;&lt;/div&gt;&lt;/blockquote&gt;&lt;/blockquote&gt;&lt;blockquote style=&quot;margin: 0 0 0 40px; border: none; padding: 0px;&quot;&gt;&lt;blockquote style=&quot;margin: 0 0 0 40px; border: none; padding: 0px;&quot;&gt;&lt;div style=&quot;color: rgb(218, 218, 218); background-color: rgb(30, 30, 30); font-family: &amp;quot;Droid Sans Mono&amp;quot;, &amp;quot;monospace&amp;quot;, monospace; font-size: 14px; line-height: 19px;&quot;&gt;&lt;div&gt;&lt;span style=&quot;color: #9cdcfe;&quot;&gt;VSrc_b64&lt;/span&gt;,&lt;/div&gt;&lt;/div&gt;&lt;/blockquote&gt;&lt;/blockquote&gt;&lt;blockquote style=&quot;margin: 0 0 0 40px; border: none; padding: 0px;&quot;&gt;&lt;blockquote style=&quot;margin: 0 0 0 40px; border: none; padding: 0px;&quot;&gt;&lt;div style=&quot;color: rgb(218, 218, 218); background-color: rgb(30, 30, 30); font-family: &amp;quot;Droid Sans Mono&amp;quot;, &amp;quot;monospace&amp;quot;, monospace; font-size: 14px; line-height: 19px;&quot;&gt;&lt;div&gt;&lt;span style=&quot;color: #dcdcaa;&quot;&gt;!if&lt;/span&gt;(&lt;/div&gt;&lt;/div&gt;&lt;/blockquote&gt;&lt;/blockquote&gt;&lt;/blockquote&gt;&lt;blockquote style=&quot;margin: 0 0 0 40px; border: none; padding: 0px;&quot;&gt;&lt;blockquote style=&quot;margin: 0 0 0 40px; border: none; padding: 0px;&quot;&gt;&lt;blockquote style=&quot;margin: 0 0 0 40px; border: none; padding: 0px;&quot;&gt;&lt;blockquote style=&quot;margin: 0 0 0 40px; border: none; padding: 0px;&quot;&gt;&lt;div style=&quot;color: rgb(218, 218, 218); background-color: rgb(30, 30, 30); font-family: &amp;quot;Droid Sans Mono&amp;quot;, &amp;quot;monospace&amp;quot;, monospace; font-size: 14px; line-height: 19px;&quot;&gt;&lt;div&gt;&lt;span style=&quot;color: #dcdcaa;&quot;&gt;!eq&lt;/span&gt;(&lt;span style=&quot;color: #9cdcfe;&quot;&gt;VT&lt;/span&gt;.&lt;span style=&quot;color: #9cdcfe;&quot;&gt;Value&lt;/span&gt;, &lt;span style=&quot;color: #9cdcfe;&quot;&gt;i16&lt;/span&gt;.&lt;span style=&quot;color: #9cdcfe;&quot;&gt;Value&lt;/span&gt;),&lt;/div&gt;&lt;/div&gt;&lt;/blockquote&gt;&lt;/blockquote&gt;&lt;/blockquote&gt;&lt;blockquote style=&quot;margin: 0 0 0 40px; border: none; padding: 0px;&quot;&gt;&lt;blockquote style=&quot;margin: 0 0 0 40px; border: none; padding: 0px;&quot;&gt;&lt;blockquote style=&quot;margin: 0 0 0 40px; border: none; padding: 0px;&quot;&gt;&lt;div style=&quot;color: rgb(218, 218, 218); background-color: rgb(30, 30, 30); font-family: &amp;quot;Droid Sans Mono&amp;quot;, &amp;quot;monospace&amp;quot;, monospace; font-size: 14px; line-height: 19px;&quot;&gt;&lt;div&gt;&lt;span style=&quot;color: #dcdcaa;&quot;&gt;!if&lt;/span&gt;(&lt;span style=&quot;color: #9cdcfe;&quot;&gt;IsTrue16&lt;/span&gt;, &lt;span style=&quot;color: #9cdcfe;&quot;&gt;VSrcT_b16_Lo128&lt;/span&gt;, &lt;span style=&quot;color: #9cdcfe;&quot;&gt;VSrc_b16&lt;/span&gt; ),&lt;/div&gt;&lt;/div&gt;&lt;/blockquote&gt;&lt;/blockquote&gt;&lt;/blockquote&gt;&lt;blockquote style=&quot;margin: 0 0 0 40px; border: none; padding: 0px;&quot;&gt;&lt;blockquote style=&quot;margin: 0 0 0 40px; border: none; padding: 0px;&quot;&gt;&lt;blockquote style=&quot;margin: 0 0 0 40px; border: none; padding: 0px;&quot;&gt;&lt;div style=&quot;color: rgb(218, 218, 218); background-color: rgb(30, 30, 30); font-family: &amp;quot;Droid Sans Mono&amp;quot;, &amp;quot;monospace&amp;quot;, monospace; font-size: 14px; line-height: 19px;&quot;&gt;&lt;div&gt;&lt;span style=&quot;color: #dcdcaa;&quot;&gt;!if&lt;/span&gt;(&lt;span style=&quot;color: #dcdcaa;&quot;&gt;!eq&lt;/span&gt;(&lt;span style=&quot;color: #9cdcfe;&quot;&gt;VT&lt;/span&gt;.&lt;span style=&quot;color: #9cdcfe;&quot;&gt;Value&lt;/span&gt;, &lt;span style=&quot;color: #9cdcfe;&quot;&gt;v2i16&lt;/span&gt;.&lt;span style=&quot;color: #9cdcfe;&quot;&gt;Value&lt;/span&gt;), &lt;span style=&quot;color: #9cdcfe;&quot;&gt;VSrc_v2b16&lt;/span&gt;, &lt;span style=&quot;color: #9cdcfe;&quot;&gt;VSrc_b32&lt;/span&gt;)&lt;/div&gt;&lt;/div&gt;&lt;/blockquote&gt;&lt;/blockquote&gt;&lt;/blockquote&gt;&lt;/blockquote&gt;&lt;blockquote style=&quot;margin: 0 0 0 40px; border: none; padding: 0px;&quot;&gt;&lt;blockquote style=&quot;margin: 0 0 0 40px; border: none; padding: 0px;&quot;&gt;&lt;blockquote style=&quot;margin: 0 0 0 40px; border: none; padding: 0px;&quot;&gt;&lt;div style=&quot;color: rgb(218, 218, 218); background-color: rgb(30, 30, 30); font-family: &amp;quot;Droid Sans Mono&amp;quot;, &amp;quot;monospace&amp;quot;, monospace; font-size: 14px; line-height: 19px;&quot;&gt;&lt;div&gt;            )&lt;/div&gt;&lt;/div&gt;&lt;/blockquote&gt;&lt;/blockquote&gt;&lt;/blockquote&gt;&lt;blockquote style=&quot;margin: 0 0 0 40px; border: none; padding: 0px;&quot;&gt;&lt;blockquote style=&quot;margin: 0 0 0 40px; border: none; padding: 0px;&quot;&gt;&lt;div style=&quot;color: rgb(218, 218, 218); background-color: rgb(30, 30, 30); font-family: &amp;quot;Droid Sans Mono&amp;quot;, &amp;quot;monospace&amp;quot;, monospace; font-size: 14px; line-height: 19px;&quot;&gt;&lt;div&gt;        )&lt;/div&gt;&lt;/div&gt;&lt;/blockquote&gt;&lt;/blockquote&gt;&lt;blockquote style=&quot;margin: 0 0 0 40px; border: none; padding: 0px;&quot;&gt;&lt;div style=&quot;color: rgb(218, 218, 218); background-color: rgb(30, 30, 30); font-family: &amp;quot;Droid Sans Mono&amp;quot;, &amp;quot;monospace&amp;quot;, monospace; font-size: 14px; line-height: 19px;&quot;&gt;&lt;div&gt;    );&lt;/div&gt;&lt;/div&gt;&lt;/blockquote&gt;&lt;div style=&quot;color: rgb(218, 218, 218); background-color: rgb(30, 30, 30); font-family: &amp;quot;Droid Sans Mono&amp;quot;, &amp;quot;monospace&amp;quot;, monospace; font-size: 14px; line-height: 19px;&quot;&gt;&lt;div&gt;}&lt;/div&gt;&lt;/div&gt;" style="text;html=1;align=left;verticalAlign=middle;resizable=0;points=[];autosize=1;strokeColor=none;fillColor=none;" vertex="1" parent="1">
                    <mxGeometry x="-3130" y="-210" width="630" height="410" as="geometry"/>
                </mxCell>
                <mxCell id="30" style="edgeStyle=none;html=1;" edge="1" parent="1" source="31" target="8">
                    <mxGeometry relative="1" as="geometry"/>
                </mxCell>
                <mxCell id="31" value="&lt;div style=&quot;color: rgb(218, 218, 218); background-color: rgb(30, 30, 30); font-family: &amp;quot;Droid Sans Mono&amp;quot;, &amp;quot;monospace&amp;quot;, monospace; font-size: 14px; line-height: 19px;&quot;&gt;&lt;div&gt;&lt;span style=&quot;color: #57a64a;&quot;&gt;// VT = i32&lt;/span&gt;&lt;/div&gt;&lt;div&gt;&lt;span style=&quot;color: #57a64a;&quot;&gt;// VT.size = 32, thus ret = VGPR_32 (vreg)&lt;/span&gt;&lt;/div&gt;&lt;div&gt;&lt;span style=&quot;color: #569cd6;&quot;&gt;class&lt;/span&gt; &lt;span style=&quot;color: #4ec9b0;&quot;&gt;getVregSrcForVT&lt;/span&gt;&amp;lt;&lt;span style=&quot;color: #4ec9b0;&quot;&gt;ValueType &lt;/span&gt;&lt;span style=&quot;color: #9cdcfe;&quot;&gt;VT&lt;/span&gt;&amp;gt; {&lt;/div&gt;&lt;/div&gt;&lt;blockquote style=&quot;margin: 0 0 0 40px; border: none; padding: 0px;&quot;&gt;&lt;div style=&quot;color: rgb(218, 218, 218); background-color: rgb(30, 30, 30); font-family: &amp;quot;Droid Sans Mono&amp;quot;, &amp;quot;monospace&amp;quot;, monospace; font-size: 14px; line-height: 19px;&quot;&gt;&lt;div&gt;&lt;span style=&quot;color: #4ec9b0;&quot;&gt;RegisterClass &lt;/span&gt;&lt;span style=&quot;color: #9cdcfe;&quot;&gt;ret&lt;/span&gt; = &lt;span style=&quot;color: #dcdcaa;&quot;&gt;!if&lt;/span&gt;(&lt;span style=&quot;color: #dcdcaa;&quot;&gt;!eq&lt;/span&gt;(&lt;span style=&quot;color: #9cdcfe;&quot;&gt;VT&lt;/span&gt;.&lt;span style=&quot;color: #9cdcfe;&quot;&gt;Size&lt;/span&gt;, &lt;span style=&quot;color: #b5cea8;&quot;&gt;128&lt;/span&gt;), &lt;span style=&quot;color: #9cdcfe;&quot;&gt;VReg_128&lt;/span&gt;,&lt;/div&gt;&lt;/div&gt;&lt;/blockquote&gt;&lt;blockquote style=&quot;margin: 0 0 0 40px; border: none; padding: 0px;&quot;&gt;&lt;blockquote style=&quot;margin: 0 0 0 40px; border: none; padding: 0px;&quot;&gt;&lt;div style=&quot;color: rgb(218, 218, 218); background-color: rgb(30, 30, 30); font-family: &amp;quot;Droid Sans Mono&amp;quot;, &amp;quot;monospace&amp;quot;, monospace; font-size: 14px; line-height: 19px;&quot;&gt;&lt;div&gt;&lt;span style=&quot;color: #dcdcaa;&quot;&gt;!if&lt;/span&gt;(&lt;span style=&quot;color: #dcdcaa;&quot;&gt;!eq&lt;/span&gt;(&lt;span style=&quot;color: #9cdcfe;&quot;&gt;VT&lt;/span&gt;.&lt;span style=&quot;color: #9cdcfe;&quot;&gt;Size&lt;/span&gt;, &lt;span style=&quot;color: #b5cea8;&quot;&gt;96&lt;/span&gt;), &lt;span style=&quot;color: #9cdcfe;&quot;&gt;VReg_96&lt;/span&gt;,&lt;/div&gt;&lt;/div&gt;&lt;/blockquote&gt;&lt;/blockquote&gt;&lt;blockquote style=&quot;margin: 0 0 0 40px; border: none; padding: 0px;&quot;&gt;&lt;blockquote style=&quot;margin: 0 0 0 40px; border: none; padding: 0px;&quot;&gt;&lt;blockquote style=&quot;margin: 0 0 0 40px; border: none; padding: 0px;&quot;&gt;&lt;div style=&quot;color: rgb(218, 218, 218); background-color: rgb(30, 30, 30); font-family: &amp;quot;Droid Sans Mono&amp;quot;, &amp;quot;monospace&amp;quot;, monospace; font-size: 14px; line-height: 19px;&quot;&gt;&lt;div&gt;&lt;span style=&quot;color: #dcdcaa;&quot;&gt;!if&lt;/span&gt;(&lt;span style=&quot;color: #dcdcaa;&quot;&gt;!eq&lt;/span&gt;(&lt;span style=&quot;color: #9cdcfe;&quot;&gt;VT&lt;/span&gt;.&lt;span style=&quot;color: #9cdcfe;&quot;&gt;Size&lt;/span&gt;, &lt;span style=&quot;color: #b5cea8;&quot;&gt;64&lt;/span&gt;), &lt;span style=&quot;color: #9cdcfe;&quot;&gt;VReg_64&lt;/span&gt;,&lt;/div&gt;&lt;/div&gt;&lt;/blockquote&gt;&lt;/blockquote&gt;&lt;/blockquote&gt;&lt;blockquote style=&quot;margin: 0 0 0 40px; border: none; padding: 0px;&quot;&gt;&lt;blockquote style=&quot;margin: 0 0 0 40px; border: none; padding: 0px;&quot;&gt;&lt;blockquote style=&quot;margin: 0 0 0 40px; border: none; padding: 0px;&quot;&gt;&lt;blockquote style=&quot;margin: 0 0 0 40px; border: none; padding: 0px;&quot;&gt;&lt;div style=&quot;color: rgb(218, 218, 218); background-color: rgb(30, 30, 30); font-family: &amp;quot;Droid Sans Mono&amp;quot;, &amp;quot;monospace&amp;quot;, monospace; font-size: 14px; line-height: 19px;&quot;&gt;&lt;div&gt;&lt;span style=&quot;color: #dcdcaa;&quot;&gt;!if&lt;/span&gt;(&lt;span style=&quot;color: #dcdcaa;&quot;&gt;!eq&lt;/span&gt;(&lt;span style=&quot;color: #9cdcfe;&quot;&gt;VT&lt;/span&gt;.&lt;span style=&quot;color: #9cdcfe;&quot;&gt;Size&lt;/span&gt;, &lt;span style=&quot;color: #b5cea8;&quot;&gt;48&lt;/span&gt;), &lt;span style=&quot;color: #9cdcfe;&quot;&gt;VReg_64&lt;/span&gt;,&amp;nbsp;&lt;span style=&quot;color: rgb(156, 220, 254);&quot;&gt;VGPR_32&lt;/span&gt;))));&lt;/div&gt;&lt;/div&gt;&lt;/blockquote&gt;&lt;/blockquote&gt;&lt;/blockquote&gt;&lt;/blockquote&gt;&lt;div style=&quot;color: rgb(218, 218, 218); background-color: rgb(30, 30, 30); font-family: &amp;quot;Droid Sans Mono&amp;quot;, &amp;quot;monospace&amp;quot;, monospace; font-size: 14px; line-height: 19px;&quot;&gt;&lt;div&gt;}&lt;/div&gt;&lt;br&gt;&lt;/div&gt;" style="text;html=1;align=left;verticalAlign=middle;resizable=0;points=[];autosize=1;strokeColor=none;fillColor=none;" vertex="1" parent="1">
                    <mxGeometry x="-3060" y="280" width="540" height="180" as="geometry"/>
                </mxCell>
                <mxCell id="32" style="edgeStyle=none;html=1;" edge="1" parent="1" source="33" target="8">
                    <mxGeometry relative="1" as="geometry">
                        <mxPoint x="-2130" y="1300" as="sourcePoint"/>
                    </mxGeometry>
                </mxCell>
                <mxCell id="33" value="&lt;div style=&quot;color: rgb(218, 218, 218); background-color: rgb(30, 30, 30); font-family: &amp;quot;Droid Sans Mono&amp;quot;, &amp;quot;monospace&amp;quot;, monospace; font-size: 14px; line-height: 19px;&quot;&gt;&lt;div&gt;&lt;span style=&quot;color: #57a64a;&quot;&gt;// since NumSrcArgs == 2, ret = (ins Src0RC:$src0, Src1RC:$src1)&lt;/span&gt;&lt;/div&gt;&lt;div&gt;&lt;span style=&quot;color: #569cd6;&quot;&gt;class&lt;/span&gt; &lt;span style=&quot;color: #4ec9b0;&quot;&gt;getIns32&lt;/span&gt; &amp;lt;&lt;span style=&quot;color: #4ec9b0;&quot;&gt;RegisterOperand &lt;/span&gt;&lt;span style=&quot;color: #9cdcfe;&quot;&gt;Src0RC&lt;/span&gt;, &lt;span style=&quot;color: #4ec9b0;&quot;&gt;RegisterOperand &lt;/span&gt;&lt;span style=&quot;color: #9cdcfe;&quot;&gt;Src1RC&lt;/span&gt;, &lt;span style=&quot;color: #4ec9b0;&quot;&gt;int&lt;/span&gt; &lt;span style=&quot;color: #9cdcfe;&quot;&gt;NumSrcArgs&lt;/span&gt;&amp;gt; {&lt;/div&gt;&lt;/div&gt;&lt;blockquote style=&quot;margin: 0 0 0 40px; border: none; padding: 0px;&quot;&gt;&lt;div style=&quot;color: rgb(218, 218, 218); background-color: rgb(30, 30, 30); font-family: &amp;quot;Droid Sans Mono&amp;quot;, &amp;quot;monospace&amp;quot;, monospace; font-size: 14px; line-height: 19px;&quot;&gt;&lt;div&gt;&lt;span style=&quot;color: #4ec9b0;&quot;&gt;dag&lt;/span&gt; &lt;span style=&quot;color: #9cdcfe;&quot;&gt;ret&lt;/span&gt; = &lt;span style=&quot;color: #dcdcaa;&quot;&gt;!if&lt;/span&gt;(&lt;span style=&quot;color: #dcdcaa;&quot;&gt;!eq&lt;/span&gt;(&lt;span style=&quot;color: #9cdcfe;&quot;&gt;NumSrcArgs&lt;/span&gt;, &lt;span style=&quot;color: #b5cea8;&quot;&gt;1&lt;/span&gt;), (&lt;span style=&quot;color: #9cdcfe;&quot;&gt;ins&lt;/span&gt; &lt;span style=&quot;color: #9cdcfe;&quot;&gt;Src0RC&lt;/span&gt;:&lt;span style=&quot;color: #b5cea8;&quot;&gt;$src0&lt;/span&gt;),               &lt;span style=&quot;color: #57a64a;&quot;&gt;// VOP1&lt;/span&gt;&lt;/div&gt;&lt;/div&gt;&lt;/blockquote&gt;&lt;blockquote style=&quot;margin: 0 0 0 40px; border: none; padding: 0px;&quot;&gt;&lt;blockquote style=&quot;margin: 0 0 0 40px; border: none; padding: 0px;&quot;&gt;&lt;div style=&quot;color: rgb(218, 218, 218); background-color: rgb(30, 30, 30); font-family: &amp;quot;Droid Sans Mono&amp;quot;, &amp;quot;monospace&amp;quot;, monospace; font-size: 14px; line-height: 19px;&quot;&gt;&lt;div&gt;&lt;span style=&quot;color: #dcdcaa;&quot;&gt;!if&lt;/span&gt;(&lt;span style=&quot;color: #dcdcaa;&quot;&gt;!eq&lt;/span&gt;(&lt;span style=&quot;color: #9cdcfe;&quot;&gt;NumSrcArgs&lt;/span&gt;, &lt;span style=&quot;color: #b5cea8;&quot;&gt;2&lt;/span&gt;), (&lt;span style=&quot;color: #9cdcfe;&quot;&gt;ins&lt;/span&gt; &lt;span style=&quot;color: #9cdcfe;&quot;&gt;Src0RC&lt;/span&gt;:&lt;span style=&quot;color: #b5cea8;&quot;&gt;$src0&lt;/span&gt;, &lt;span style=&quot;color: #9cdcfe;&quot;&gt;Src1RC&lt;/span&gt;:&lt;span style=&quot;color: #b5cea8;&quot;&gt;$src1&lt;/span&gt;), &lt;span style=&quot;color: #57a64a;&quot;&gt;// VOP2&lt;/span&gt;&lt;/div&gt;&lt;/div&gt;&lt;/blockquote&gt;&lt;/blockquote&gt;&lt;blockquote style=&quot;margin: 0 0 0 40px; border: none; padding: 0px;&quot;&gt;&lt;blockquote style=&quot;margin: 0 0 0 40px; border: none; padding: 0px;&quot;&gt;&lt;blockquote style=&quot;margin: 0 0 0 40px; border: none; padding: 0px;&quot;&gt;&lt;div style=&quot;color: rgb(218, 218, 218); background-color: rgb(30, 30, 30); font-family: &amp;quot;Droid Sans Mono&amp;quot;, &amp;quot;monospace&amp;quot;, monospace; font-size: 14px; line-height: 19px;&quot;&gt;&lt;div&gt;                                    (&lt;span style=&quot;color: #9cdcfe;&quot;&gt;ins&lt;/span&gt;)));&lt;/div&gt;&lt;/div&gt;&lt;/blockquote&gt;&lt;/blockquote&gt;&lt;/blockquote&gt;&lt;span style=&quot;background-color: rgb(30, 30, 30); color: rgb(218, 218, 218); font-family: &amp;quot;Droid Sans Mono&amp;quot;, &amp;quot;monospace&amp;quot;, monospace; font-size: 14px;&quot;&gt;}&lt;/span&gt;" style="text;html=1;align=left;verticalAlign=middle;resizable=0;points=[];autosize=1;strokeColor=none;fillColor=none;" vertex="1" parent="1">
                    <mxGeometry x="-3210" y="519" width="700" height="130" as="geometry"/>
                </mxCell>
                <mxCell id="34" style="edgeStyle=none;html=1;" edge="1" parent="1" source="35" target="8">
                    <mxGeometry relative="1" as="geometry"/>
                </mxCell>
                <mxCell id="35" value="&lt;div style=&quot;color: rgb(218, 218, 218); background-color: rgb(30, 30, 30); font-family: &amp;quot;Droid Sans Mono&amp;quot;, &amp;quot;monospace&amp;quot;, monospace; font-size: 14px; line-height: 19px;&quot;&gt;&lt;div&gt;&lt;span style=&quot;color: #57a64a;&quot;&gt;// VT = i32, thus ret = VOPDstOperand&amp;lt;VGPR_32&amp;gt;&lt;/span&gt;&lt;/div&gt;&lt;div&gt;&lt;span style=&quot;color: #569cd6;&quot;&gt;class&lt;/span&gt; &lt;span style=&quot;color: #4ec9b0;&quot;&gt;getVALUDstForVT&lt;/span&gt;&amp;lt;&lt;span style=&quot;color: #4ec9b0;&quot;&gt;ValueType &lt;/span&gt;&lt;span style=&quot;color: #9cdcfe;&quot;&gt;VT&lt;/span&gt;&amp;gt; {&lt;/div&gt;&lt;/div&gt;&lt;blockquote style=&quot;margin: 0 0 0 40px; border: none; padding: 0px;&quot;&gt;&lt;div style=&quot;color: rgb(218, 218, 218); background-color: rgb(30, 30, 30); font-family: &amp;quot;Droid Sans Mono&amp;quot;, &amp;quot;monospace&amp;quot;, monospace; font-size: 14px; line-height: 19px;&quot;&gt;&lt;div&gt;&lt;span style=&quot;color: #4ec9b0;&quot;&gt;RegisterOperand &lt;/span&gt;&lt;span style=&quot;color: #9cdcfe;&quot;&gt;ret&lt;/span&gt; = &lt;span style=&quot;color: #dcdcaa;&quot;&gt;!if&lt;/span&gt;(&lt;span style=&quot;color: #dcdcaa;&quot;&gt;!eq&lt;/span&gt;(&lt;span style=&quot;color: #9cdcfe;&quot;&gt;VT&lt;/span&gt;.&lt;span style=&quot;color: #9cdcfe;&quot;&gt;Size&lt;/span&gt;, &lt;span style=&quot;color: #b5cea8;&quot;&gt;32&lt;/span&gt;), &lt;span style=&quot;color: #4ec9b0;&quot;&gt;VOPDstOperand&lt;/span&gt;&amp;lt;&lt;span style=&quot;color: #9cdcfe;&quot;&gt;VGPR_32&lt;/span&gt;&amp;gt;,&lt;/div&gt;&lt;/div&gt;&lt;/blockquote&gt;&lt;blockquote style=&quot;margin: 0 0 0 40px; border: none; padding: 0px;&quot;&gt;&lt;blockquote style=&quot;margin: 0 0 0 40px; border: none; padding: 0px;&quot;&gt;&lt;div style=&quot;color: rgb(218, 218, 218); background-color: rgb(30, 30, 30); font-family: &amp;quot;Droid Sans Mono&amp;quot;, &amp;quot;monospace&amp;quot;, monospace; font-size: 14px; line-height: 19px;&quot;&gt;&lt;div&gt;&lt;span style=&quot;color: #dcdcaa;&quot;&gt;!if&lt;/span&gt;(&lt;span style=&quot;color: #dcdcaa;&quot;&gt;!eq&lt;/span&gt;(&lt;span style=&quot;color: #9cdcfe;&quot;&gt;VT&lt;/span&gt;.&lt;span style=&quot;color: #9cdcfe;&quot;&gt;Size&lt;/span&gt;, &lt;span style=&quot;color: #b5cea8;&quot;&gt;128&lt;/span&gt;), &lt;span style=&quot;color: #4ec9b0;&quot;&gt;VOPDstOperand&lt;/span&gt;&amp;lt;&lt;span style=&quot;color: #9cdcfe;&quot;&gt;VReg_128&lt;/span&gt;&amp;gt;,&lt;/div&gt;&lt;/div&gt;&lt;/blockquote&gt;&lt;/blockquote&gt;&lt;blockquote style=&quot;margin: 0 0 0 40px; border: none; padding: 0px;&quot;&gt;&lt;blockquote style=&quot;margin: 0 0 0 40px; border: none; padding: 0px;&quot;&gt;&lt;blockquote style=&quot;margin: 0 0 0 40px; border: none; padding: 0px;&quot;&gt;&lt;div style=&quot;color: rgb(218, 218, 218); background-color: rgb(30, 30, 30); font-family: &amp;quot;Droid Sans Mono&amp;quot;, &amp;quot;monospace&amp;quot;, monospace; font-size: 14px; line-height: 19px;&quot;&gt;&lt;div&gt;&lt;span style=&quot;color: #dcdcaa;&quot;&gt;!if&lt;/span&gt;(&lt;span style=&quot;color: #dcdcaa;&quot;&gt;!eq&lt;/span&gt;(&lt;span style=&quot;color: #9cdcfe;&quot;&gt;VT&lt;/span&gt;.&lt;span style=&quot;color: #9cdcfe;&quot;&gt;Size&lt;/span&gt;, &lt;span style=&quot;color: #b5cea8;&quot;&gt;64&lt;/span&gt;), &lt;span style=&quot;color: #4ec9b0;&quot;&gt;VOPDstOperand&lt;/span&gt;&amp;lt;&lt;span style=&quot;color: #9cdcfe;&quot;&gt;VReg_64&lt;/span&gt;&amp;gt;,&lt;/div&gt;&lt;/div&gt;&lt;/blockquote&gt;&lt;/blockquote&gt;&lt;/blockquote&gt;&lt;blockquote style=&quot;margin: 0 0 0 40px; border: none; padding: 0px;&quot;&gt;&lt;blockquote style=&quot;margin: 0 0 0 40px; border: none; padding: 0px;&quot;&gt;&lt;blockquote style=&quot;margin: 0 0 0 40px; border: none; padding: 0px;&quot;&gt;&lt;blockquote style=&quot;margin: 0 0 0 40px; border: none; padding: 0px;&quot;&gt;&lt;div style=&quot;color: rgb(218, 218, 218); background-color: rgb(30, 30, 30); font-family: &amp;quot;Droid Sans Mono&amp;quot;, &amp;quot;monospace&amp;quot;, monospace; font-size: 14px; line-height: 19px;&quot;&gt;&lt;div&gt;&lt;span style=&quot;color: #dcdcaa;&quot;&gt;!if&lt;/span&gt;(&lt;span style=&quot;color: #dcdcaa;&quot;&gt;!eq&lt;/span&gt;(&lt;span style=&quot;color: #9cdcfe;&quot;&gt;VT&lt;/span&gt;.&lt;span style=&quot;color: #9cdcfe;&quot;&gt;Size&lt;/span&gt;, &lt;span style=&quot;color: #b5cea8;&quot;&gt;16&lt;/span&gt;), &lt;span style=&quot;color: #4ec9b0;&quot;&gt;VOPDstOperand&lt;/span&gt;&amp;lt;&lt;span style=&quot;color: #9cdcfe;&quot;&gt;VGPR_32&lt;/span&gt;&amp;gt;,&lt;/div&gt;&lt;/div&gt;&lt;/blockquote&gt;&lt;/blockquote&gt;&lt;/blockquote&gt;&lt;/blockquote&gt;&lt;blockquote style=&quot;margin: 0 0 0 40px; border: none; padding: 0px;&quot;&gt;&lt;blockquote style=&quot;margin: 0 0 0 40px; border: none; padding: 0px;&quot;&gt;&lt;blockquote style=&quot;margin: 0 0 0 40px; border: none; padding: 0px;&quot;&gt;&lt;blockquote style=&quot;margin: 0 0 0 40px; border: none; padding: 0px;&quot;&gt;&lt;blockquote style=&quot;margin: 0 0 0 40px; border: none; padding: 0px;&quot;&gt;&lt;div style=&quot;color: rgb(218, 218, 218); background-color: rgb(30, 30, 30); font-family: &amp;quot;Droid Sans Mono&amp;quot;, &amp;quot;monospace&amp;quot;, monospace; font-size: 14px; line-height: 19px;&quot;&gt;&lt;div&gt;&lt;span style=&quot;color: #9cdcfe;&quot;&gt;VOPDstS64orS32&lt;/span&gt;)))); &lt;span style=&quot;color: #57a64a;&quot;&gt;// else VT == i1&lt;/span&gt;&lt;/div&gt;&lt;/div&gt;&lt;/blockquote&gt;&lt;/blockquote&gt;&lt;/blockquote&gt;&lt;/blockquote&gt;&lt;/blockquote&gt;&lt;div style=&quot;color: rgb(218, 218, 218); background-color: rgb(30, 30, 30); font-family: &amp;quot;Droid Sans Mono&amp;quot;, &amp;quot;monospace&amp;quot;, monospace; font-size: 14px; line-height: 19px;&quot;&gt;&lt;div&gt;}&lt;/div&gt;&lt;br&gt;&lt;/div&gt;" style="text;html=1;align=left;verticalAlign=middle;resizable=0;points=[];autosize=1;strokeColor=none;fillColor=none;" vertex="1" parent="1">
                    <mxGeometry x="-3190" y="675" width="630" height="180" as="geometry"/>
                </mxCell>
                <mxCell id="36" style="edgeStyle=none;html=1;" edge="1" parent="1" source="37" target="40">
                    <mxGeometry relative="1" as="geometry"/>
                </mxCell>
                <mxCell id="37" value="&lt;div style=&quot;color: rgb(218, 218, 218); background-color: rgb(30, 30, 30); font-family: &amp;quot;Droid Sans Mono&amp;quot;, &amp;quot;monospace&amp;quot;, monospace; font-size: 14px; line-height: 19px;&quot;&gt;&lt;div&gt;&lt;div style=&quot;line-height: 19px;&quot;&gt;&lt;div&gt;&lt;span style=&quot;color: #57a64a;&quot;&gt;// opName = &quot;v_xnor_b32&quot;&lt;/span&gt;&lt;/div&gt;&lt;div&gt;&lt;span style=&quot;color: #57a64a;&quot;&gt;// P = VOP_I32_I32_I32&lt;/span&gt;&lt;/div&gt;&lt;div&gt;&lt;span style=&quot;color: #57a64a;&quot;&gt;// ins =&amp;nbsp;&lt;/span&gt;&lt;span style=&quot;color: rgb(87, 166, 74);&quot;&gt;(ins&amp;nbsp;&lt;/span&gt;&lt;span style=&quot;color: rgb(87, 166, 74);&quot;&gt;VSrc_b32&lt;/span&gt;&lt;span style=&quot;color: rgb(87, 166, 74);&quot;&gt;:$src0,&amp;nbsp;&lt;/span&gt;&lt;span style=&quot;color: rgb(87, 166, 74);&quot;&gt;VSrc_b32&lt;/span&gt;&lt;span style=&quot;color: rgb(87, 166, 74);&quot;&gt;:$src1)&lt;/span&gt;&lt;/div&gt;&lt;div&gt;&lt;span style=&quot;color: rgb(87, 166, 74);&quot;&gt;// outs =&amp;nbsp;&lt;/span&gt;&lt;span style=&quot;color: rgb(87, 166, 74);&quot;&gt;(outs&amp;nbsp;&lt;/span&gt;&lt;span style=&quot;color: rgb(87, 166, 74);&quot;&gt;VOPDstOperand&amp;lt;VGPR_32&amp;gt;&lt;/span&gt;&lt;span style=&quot;color: rgb(87, 166, 74);&quot;&gt;:$vdst)&lt;/span&gt;&lt;/div&gt;&lt;div&gt;&lt;span style=&quot;color: #57a64a;&quot;&gt;// patter = []&lt;/span&gt;&lt;/div&gt;&lt;/div&gt;&lt;/div&gt;&lt;div&gt;&lt;span style=&quot;color: #569cd6;&quot;&gt;class&lt;/span&gt; &lt;span style=&quot;color: #4ec9b0;&quot;&gt;VOP_Pseudo&lt;/span&gt; &amp;lt;&lt;/div&gt;&lt;/div&gt;&lt;blockquote style=&quot;margin: 0 0 0 40px; border: none; padding: 0px;&quot;&gt;&lt;div style=&quot;color: rgb(218, 218, 218); background-color: rgb(30, 30, 30); font-family: &amp;quot;Droid Sans Mono&amp;quot;, &amp;quot;monospace&amp;quot;, monospace; font-size: 14px; line-height: 19px;&quot;&gt;&lt;div&gt;&lt;span style=&quot;color: #4ec9b0;&quot;&gt;string&lt;/span&gt; &lt;span style=&quot;color: #9cdcfe;&quot;&gt;opName&lt;/span&gt;,&amp;nbsp;&lt;/div&gt;&lt;/div&gt;&lt;div style=&quot;color: rgb(218, 218, 218); background-color: rgb(30, 30, 30); font-family: &amp;quot;Droid Sans Mono&amp;quot;, &amp;quot;monospace&amp;quot;, monospace; font-size: 14px; line-height: 19px;&quot;&gt;&lt;div&gt;&lt;span style=&quot;color: #4ec9b0;&quot;&gt;string&lt;/span&gt; &lt;span style=&quot;color: #9cdcfe;&quot;&gt;suffix&lt;/span&gt;,&amp;nbsp;&lt;/div&gt;&lt;/div&gt;&lt;div style=&quot;color: rgb(218, 218, 218); background-color: rgb(30, 30, 30); font-family: &amp;quot;Droid Sans Mono&amp;quot;, &amp;quot;monospace&amp;quot;, monospace; font-size: 14px; line-height: 19px;&quot;&gt;&lt;div&gt;&lt;span style=&quot;color: #4ec9b0;&quot;&gt;VOPProfile &lt;/span&gt;&lt;span style=&quot;color: #9cdcfe;&quot;&gt;P&lt;/span&gt;,&amp;nbsp;&lt;/div&gt;&lt;/div&gt;&lt;div style=&quot;color: rgb(218, 218, 218); background-color: rgb(30, 30, 30); font-family: &amp;quot;Droid Sans Mono&amp;quot;, &amp;quot;monospace&amp;quot;, monospace; font-size: 14px; line-height: 19px;&quot;&gt;&lt;div&gt;&lt;span style=&quot;color: #4ec9b0;&quot;&gt;dag&lt;/span&gt; &lt;span style=&quot;color: #9cdcfe;&quot;&gt;outs&lt;/span&gt;,&amp;nbsp;&lt;/div&gt;&lt;/div&gt;&lt;div style=&quot;color: rgb(218, 218, 218); background-color: rgb(30, 30, 30); font-family: &amp;quot;Droid Sans Mono&amp;quot;, &amp;quot;monospace&amp;quot;, monospace; font-size: 14px; line-height: 19px;&quot;&gt;&lt;div&gt;&lt;span style=&quot;color: #4ec9b0;&quot;&gt;dag&lt;/span&gt; &lt;span style=&quot;color: #9cdcfe;&quot;&gt;ins&lt;/span&gt;,&amp;nbsp;&lt;/div&gt;&lt;/div&gt;&lt;div style=&quot;color: rgb(218, 218, 218); background-color: rgb(30, 30, 30); font-family: &amp;quot;Droid Sans Mono&amp;quot;, &amp;quot;monospace&amp;quot;, monospace; font-size: 14px; line-height: 19px;&quot;&gt;&lt;div&gt;&lt;span style=&quot;color: rgb(78, 201, 176);&quot;&gt;string&lt;/span&gt; &lt;span style=&quot;color: rgb(156, 220, 254);&quot;&gt;asm&lt;/span&gt;,&amp;nbsp;&lt;/div&gt;&lt;/div&gt;&lt;div style=&quot;color: rgb(218, 218, 218); background-color: rgb(30, 30, 30); font-family: &amp;quot;Droid Sans Mono&amp;quot;, &amp;quot;monospace&amp;quot;, monospace; font-size: 14px; line-height: 19px;&quot;&gt;&lt;div&gt;&lt;span style=&quot;color: rgb(78, 201, 176);&quot;&gt;list&lt;/span&gt;&amp;lt;&lt;span style=&quot;color: rgb(78, 201, 176);&quot;&gt;dag&lt;/span&gt;&amp;gt; &lt;span style=&quot;color: rgb(156, 220, 254);&quot;&gt;pattern&lt;/span&gt;&lt;/div&gt;&lt;/div&gt;&lt;/blockquote&gt;&lt;div style=&quot;color: rgb(218, 218, 218); background-color: rgb(30, 30, 30); font-family: &amp;quot;Droid Sans Mono&amp;quot;, &amp;quot;monospace&amp;quot;, monospace; font-size: 14px; line-height: 19px;&quot;&gt;&lt;div&gt;&amp;gt; :&lt;/div&gt;&lt;div&gt;  &lt;span style=&quot;color: #4ec9b0;&quot;&gt;InstSI&lt;/span&gt; &amp;lt;&lt;span style=&quot;color: #9cdcfe;&quot;&gt;outs&lt;/span&gt;, &lt;span style=&quot;color: #9cdcfe;&quot;&gt;ins&lt;/span&gt;, &lt;span style=&quot;color: #9cdcfe;&quot;&gt;asm&lt;/span&gt;, &lt;span style=&quot;color: #9cdcfe;&quot;&gt;pattern&lt;/span&gt;&amp;gt;,&lt;/div&gt;&lt;div&gt;  &lt;span style=&quot;color: #4ec9b0;&quot;&gt;VOP&lt;/span&gt; &amp;lt;&lt;span style=&quot;color: #9cdcfe;&quot;&gt;opName&lt;/span&gt;&amp;gt;,&lt;/div&gt;&lt;div&gt;  &lt;span style=&quot;color: #4ec9b0;&quot;&gt;SIMCInstr&lt;/span&gt; &amp;lt;&lt;span style=&quot;color: #9cdcfe;&quot;&gt;opName&lt;/span&gt;#&lt;span style=&quot;color: #9cdcfe;&quot;&gt;suffix&lt;/span&gt;, &lt;span style=&quot;color: #9cdcfe;&quot;&gt;SIEncodingFamily&lt;/span&gt;.&lt;span style=&quot;color: #9cdcfe;&quot;&gt;NONE&lt;/span&gt;&amp;gt; {&lt;/div&gt;&lt;/div&gt;&lt;blockquote style=&quot;margin: 0 0 0 40px; border: none; padding: 0px;&quot;&gt;&lt;div style=&quot;color: rgb(218, 218, 218); background-color: rgb(30, 30, 30); font-family: &amp;quot;Droid Sans Mono&amp;quot;, &amp;quot;monospace&amp;quot;, monospace; font-size: 14px; line-height: 19px;&quot;&gt;&lt;div&gt;  ...&lt;/div&gt;&lt;/div&gt;&lt;/blockquote&gt;&lt;div style=&quot;color: rgb(218, 218, 218); background-color: rgb(30, 30, 30); font-family: &amp;quot;Droid Sans Mono&amp;quot;, &amp;quot;monospace&amp;quot;, monospace; font-size: 14px; line-height: 19px;&quot;&gt;&lt;div&gt;}&lt;/div&gt;&lt;/div&gt;" style="text;html=1;align=left;verticalAlign=middle;resizable=0;points=[];autosize=1;strokeColor=none;fillColor=none;" vertex="1" parent="1">
                    <mxGeometry x="2675" y="650" width="440" height="370" as="geometry"/>
                </mxCell>
                <mxCell id="38" style="edgeStyle=none;html=1;entryX=0.002;entryY=0.504;entryDx=0;entryDy=0;entryPerimeter=0;" edge="1" parent="1" source="39" target="37">
                    <mxGeometry relative="1" as="geometry"/>
                </mxCell>
                <mxCell id="39" value="&lt;div style=&quot;color: rgb(218, 218, 218); background-color: rgb(30, 30, 30); font-family: &amp;quot;Droid Sans Mono&amp;quot;, &amp;quot;monospace&amp;quot;, monospace; font-size: 14px; line-height: 19px;&quot;&gt;&lt;div&gt;&lt;div style=&quot;line-height: 19px;&quot;&gt;&lt;div&gt;&lt;span style=&quot;color: #57a64a;&quot;&gt;// opName = &quot;v_xnor_b32&quot;&lt;/span&gt;&lt;/div&gt;&lt;div&gt;&lt;span style=&quot;color: #57a64a;&quot;&gt;// P = VOP_I32_I32_I32&lt;/span&gt;&lt;/div&gt;&lt;div&gt;&lt;span style=&quot;color: #57a64a;&quot;&gt;// patter = []&lt;/span&gt;&lt;/div&gt;&lt;/div&gt;&lt;/div&gt;&lt;div&gt;&lt;span style=&quot;color: #569cd6;&quot;&gt;class&lt;/span&gt; &lt;span style=&quot;color: #4ec9b0;&quot;&gt;VOP2_Pseudo&lt;/span&gt; &amp;lt;&lt;span style=&quot;color: #4ec9b0;&quot;&gt;string&lt;/span&gt; &lt;span style=&quot;color: #9cdcfe;&quot;&gt;opName&lt;/span&gt;, &lt;span style=&quot;color: #4ec9b0;&quot;&gt;VOPProfile &lt;/span&gt;&lt;span style=&quot;color: #9cdcfe;&quot;&gt;P&lt;/span&gt;, &lt;span style=&quot;color: #4ec9b0;&quot;&gt;list&lt;/span&gt;&amp;lt;&lt;span style=&quot;color: #4ec9b0;&quot;&gt;dag&lt;/span&gt;&amp;gt; &lt;span style=&quot;color: #9cdcfe;&quot;&gt;pattern&lt;/span&gt;=[], &lt;span style=&quot;color: #4ec9b0;&quot;&gt;string&lt;/span&gt; &lt;span style=&quot;color: #9cdcfe;&quot;&gt;suffix&lt;/span&gt; = &lt;span style=&quot;color: #e8c9bb;&quot;&gt;&quot;&lt;/span&gt;&lt;span style=&quot;color: #ce9178;&quot;&gt;_e32&lt;/span&gt;&lt;span style=&quot;color: #e8c9bb;&quot;&gt;&quot;&lt;/span&gt;&amp;gt; :&lt;/div&gt;&lt;div&gt;  &lt;span style=&quot;color: #4ec9b0;&quot;&gt;VOP_Pseudo&lt;/span&gt; &amp;lt;&lt;span style=&quot;color: #9cdcfe;&quot;&gt;opName&lt;/span&gt;, &lt;span style=&quot;color: #9cdcfe;&quot;&gt;suffix&lt;/span&gt;, &lt;span style=&quot;color: #9cdcfe;&quot;&gt;P&lt;/span&gt;, &lt;span style=&quot;color: #9cdcfe;&quot;&gt;P&lt;/span&gt;.&lt;span style=&quot;color: #9cdcfe;&quot;&gt;Outs32&lt;/span&gt;, &lt;span style=&quot;color: #9cdcfe;&quot;&gt;P&lt;/span&gt;.&lt;span style=&quot;color: #9cdcfe;&quot;&gt;Ins32&lt;/span&gt;, &lt;span style=&quot;color: #e8c9bb;&quot;&gt;&quot;&quot;&lt;/span&gt;, &lt;span style=&quot;color: #9cdcfe;&quot;&gt;pattern&lt;/span&gt;&amp;gt; {&lt;/div&gt;&lt;/div&gt;&lt;blockquote style=&quot;margin: 0 0 0 40px; border: none; padding: 0px;&quot;&gt;&lt;div style=&quot;color: rgb(218, 218, 218); background-color: rgb(30, 30, 30); font-family: &amp;quot;Droid Sans Mono&amp;quot;, &amp;quot;monospace&amp;quot;, monospace; font-size: 14px; line-height: 19px;&quot;&gt;&lt;div&gt;    ...&lt;/div&gt;&lt;/div&gt;&lt;/blockquote&gt;&lt;div style=&quot;color: rgb(218, 218, 218); background-color: rgb(30, 30, 30); font-family: &amp;quot;Droid Sans Mono&amp;quot;, &amp;quot;monospace&amp;quot;, monospace; font-size: 14px; line-height: 19px;&quot;&gt;&lt;div&gt;}&lt;/div&gt;&lt;/div&gt;" style="text;html=1;align=left;verticalAlign=middle;resizable=0;points=[];autosize=1;strokeColor=none;fillColor=none;" vertex="1" parent="1">
                    <mxGeometry x="1720" y="760" width="820" height="150" as="geometry"/>
                </mxCell>
                <mxCell id="40" value="&lt;div style=&quot;color: rgb(218, 218, 218); background-color: rgb(30, 30, 30); font-family: &amp;quot;Droid Sans Mono&amp;quot;, &amp;quot;monospace&amp;quot;, monospace; font-size: 14px; line-height: 19px;&quot;&gt;&lt;div&gt;&lt;div&gt;&lt;div style=&quot;line-height: 19px;&quot;&gt;&lt;div&gt;&lt;span style=&quot;color: rgb(87, 166, 74);&quot;&gt;// opName = &quot;v_xnor_b32&quot;&lt;/span&gt;&lt;/div&gt;&lt;div&gt;&lt;span style=&quot;color: rgb(87, 166, 74);&quot;&gt;// P = VOP_I32_I32_I32&lt;/span&gt;&lt;/div&gt;&lt;div&gt;&lt;span style=&quot;color: rgb(87, 166, 74);&quot;&gt;// ins =&amp;nbsp;&lt;/span&gt;&lt;span style=&quot;color: rgb(87, 166, 74);&quot;&gt;(ins&amp;nbsp;&lt;/span&gt;&lt;span style=&quot;color: rgb(87, 166, 74);&quot;&gt;VSrc_b32&lt;/span&gt;&lt;span style=&quot;color: rgb(87, 166, 74);&quot;&gt;:$src0,&amp;nbsp;&lt;/span&gt;&lt;span style=&quot;color: rgb(87, 166, 74);&quot;&gt;VSrc_b32&lt;/span&gt;&lt;span style=&quot;color: rgb(87, 166, 74);&quot;&gt;:$src1)&lt;/span&gt;&lt;/div&gt;&lt;div&gt;&lt;span style=&quot;color: rgb(87, 166, 74);&quot;&gt;// outs =&amp;nbsp;&lt;/span&gt;&lt;span style=&quot;color: rgb(87, 166, 74);&quot;&gt;(outs&amp;nbsp;&lt;/span&gt;&lt;span style=&quot;color: rgb(87, 166, 74);&quot;&gt;VOPDstOperand&amp;lt;VGPR_32&amp;gt;&lt;/span&gt;&lt;span style=&quot;color: rgb(87, 166, 74);&quot;&gt;:$vdst)&lt;/span&gt;&lt;/div&gt;&lt;div&gt;&lt;span style=&quot;color: rgb(87, 166, 74);&quot;&gt;// patter = []&lt;/span&gt;&lt;/div&gt;&lt;/div&gt;&lt;/div&gt;&lt;/div&gt;&lt;div&gt;&lt;span style=&quot;color: #569cd6;&quot;&gt;class&lt;/span&gt; &lt;span style=&quot;color: #4ec9b0;&quot;&gt;InstSI&lt;/span&gt; &amp;lt;&lt;span style=&quot;color: #4ec9b0;&quot;&gt;dag&lt;/span&gt; &lt;span style=&quot;color: #9cdcfe;&quot;&gt;outs&lt;/span&gt;, &lt;span style=&quot;color: #4ec9b0;&quot;&gt;dag&lt;/span&gt; &lt;span style=&quot;color: #9cdcfe;&quot;&gt;ins&lt;/span&gt;, &lt;span style=&quot;color: #4ec9b0;&quot;&gt;string&lt;/span&gt; &lt;span style=&quot;color: #9cdcfe;&quot;&gt;asm&lt;/span&gt; = &lt;span style=&quot;color: #e8c9bb;&quot;&gt;&quot;&quot;&lt;/span&gt;,&amp;nbsp;&lt;span style=&quot;color: rgb(78, 201, 176);&quot;&gt;list&lt;/span&gt;&amp;lt;&lt;span style=&quot;color: rgb(78, 201, 176);&quot;&gt;dag&lt;/span&gt;&amp;gt; &lt;span style=&quot;color: rgb(156, 220, 254);&quot;&gt;pattern&lt;/span&gt; = []&amp;gt; :&lt;/div&gt;&lt;div&gt;  &lt;span style=&quot;color: #4ec9b0;&quot;&gt;AMDGPUInst&lt;/span&gt;&amp;lt;&lt;span style=&quot;color: #9cdcfe;&quot;&gt;outs&lt;/span&gt;, &lt;span style=&quot;color: #9cdcfe;&quot;&gt;ins&lt;/span&gt;, &lt;span style=&quot;color: #9cdcfe;&quot;&gt;asm&lt;/span&gt;, &lt;span style=&quot;color: #9cdcfe;&quot;&gt;pattern&lt;/span&gt;&amp;gt;, &lt;span style=&quot;color: #4ec9b0;&quot;&gt;GCNPredicateControl&lt;/span&gt; {&lt;/div&gt;&lt;/div&gt;&lt;blockquote style=&quot;margin: 0 0 0 40px; border: none; padding: 0px;&quot;&gt;&lt;div style=&quot;color: rgb(218, 218, 218); background-color: rgb(30, 30, 30); font-family: &amp;quot;Droid Sans Mono&amp;quot;, &amp;quot;monospace&amp;quot;, monospace; font-size: 14px; line-height: 19px;&quot;&gt;&lt;div&gt;    ...&lt;/div&gt;&lt;/div&gt;&lt;/blockquote&gt;&lt;div style=&quot;color: rgb(218, 218, 218); background-color: rgb(30, 30, 30); font-family: &amp;quot;Droid Sans Mono&amp;quot;, &amp;quot;monospace&amp;quot;, monospace; font-size: 14px; line-height: 19px;&quot;&gt;&lt;div&gt;}&lt;/div&gt;&lt;/div&gt;" style="text;html=1;align=left;verticalAlign=middle;resizable=0;points=[];autosize=1;strokeColor=none;fillColor=none;" vertex="1" parent="1">
                    <mxGeometry x="3320" y="745" width="650" height="180" as="geometry"/>
                </mxCell>
                <mxCell id="41" value="&lt;div style=&quot;color: rgb(218, 218, 218); background-color: rgb(30, 30, 30); font-family: &amp;quot;Droid Sans Mono&amp;quot;, &amp;quot;monospace&amp;quot;, monospace; font-size: 14px; line-height: 19px;&quot;&gt;&lt;div&gt;&lt;span style=&quot;color: #569cd6;&quot;&gt;class&lt;/span&gt; &lt;span style=&quot;color: #4ec9b0;&quot;&gt;AMDGPUInst&lt;/span&gt; &amp;lt;&lt;span style=&quot;color: #4ec9b0;&quot;&gt;dag&lt;/span&gt; &lt;span style=&quot;color: #9cdcfe;&quot;&gt;outs&lt;/span&gt;, &lt;span style=&quot;color: #4ec9b0;&quot;&gt;dag&lt;/span&gt; &lt;span style=&quot;color: #9cdcfe;&quot;&gt;ins&lt;/span&gt;, &lt;span style=&quot;color: #4ec9b0;&quot;&gt;string&lt;/span&gt; &lt;span style=&quot;color: #9cdcfe;&quot;&gt;asm&lt;/span&gt; = &lt;span style=&quot;color: #e8c9bb;&quot;&gt;&quot;&quot;&lt;/span&gt;,&lt;/div&gt;&lt;div&gt;  &lt;span style=&quot;color: #4ec9b0;&quot;&gt;list&lt;/span&gt;&amp;lt;&lt;span style=&quot;color: #4ec9b0;&quot;&gt;dag&lt;/span&gt;&amp;gt; &lt;span style=&quot;color: #9cdcfe;&quot;&gt;pattern&lt;/span&gt; = []&amp;gt; : &lt;span style=&quot;color: #4ec9b0;&quot;&gt;Instruction&lt;/span&gt; {&lt;/div&gt;&lt;/div&gt;&lt;blockquote style=&quot;margin: 0 0 0 40px; border: none; padding: 0px;&quot;&gt;&lt;div style=&quot;color: rgb(218, 218, 218); background-color: rgb(30, 30, 30); font-family: &amp;quot;Droid Sans Mono&amp;quot;, &amp;quot;monospace&amp;quot;, monospace; font-size: 14px; line-height: 19px;&quot;&gt;&lt;div&gt;    ...&lt;/div&gt;&lt;/div&gt;&lt;div style=&quot;color: rgb(218, 218, 218); background-color: rgb(30, 30, 30); font-family: &amp;quot;Droid Sans Mono&amp;quot;, &amp;quot;monospace&amp;quot;, monospace; font-size: 14px; line-height: 19px;&quot;&gt;&lt;div&gt;&lt;span style=&quot;color: #569cd6;&quot;&gt;let&lt;/span&gt; &lt;span style=&quot;color: #9cdcfe;&quot;&gt;InOperandList&lt;/span&gt; = &lt;span style=&quot;color: #9cdcfe;&quot;&gt;ins&lt;/span&gt;;&lt;/div&gt;&lt;/div&gt;&lt;div style=&quot;color: rgb(218, 218, 218); background-color: rgb(30, 30, 30); font-family: &amp;quot;Droid Sans Mono&amp;quot;, &amp;quot;monospace&amp;quot;, monospace; font-size: 14px; line-height: 19px;&quot;&gt;&lt;div&gt;&lt;span style=&quot;color: #569cd6;&quot;&gt;let&lt;/span&gt; &lt;span style=&quot;color: #9cdcfe;&quot;&gt;AsmString&lt;/span&gt; = &lt;span style=&quot;color: #9cdcfe;&quot;&gt;asm&lt;/span&gt;;&lt;/div&gt;&lt;/div&gt;&lt;div style=&quot;color: rgb(218, 218, 218); background-color: rgb(30, 30, 30); font-family: &amp;quot;Droid Sans Mono&amp;quot;, &amp;quot;monospace&amp;quot;, monospace; font-size: 14px; line-height: 19px;&quot;&gt;&lt;div&gt;&lt;span style=&quot;color: #569cd6;&quot;&gt;let&lt;/span&gt; &lt;span style=&quot;color: #9cdcfe;&quot;&gt;Pattern&lt;/span&gt; = &lt;span style=&quot;color: #9cdcfe;&quot;&gt;pattern&lt;/span&gt;;&lt;/div&gt;&lt;/div&gt;&lt;div style=&quot;color: rgb(218, 218, 218); background-color: rgb(30, 30, 30); font-family: &amp;quot;Droid Sans Mono&amp;quot;, &amp;quot;monospace&amp;quot;, monospace; font-size: 14px; line-height: 19px;&quot;&gt;&lt;div&gt;    ...&lt;/div&gt;&lt;/div&gt;&lt;/blockquote&gt;&lt;div style=&quot;color: rgb(218, 218, 218); background-color: rgb(30, 30, 30); font-family: &amp;quot;Droid Sans Mono&amp;quot;, &amp;quot;monospace&amp;quot;, monospace; font-size: 14px; line-height: 19px;&quot;&gt;&lt;div&gt;}&lt;/div&gt;&lt;/div&gt;" style="text;html=1;align=left;verticalAlign=middle;resizable=0;points=[];autosize=1;strokeColor=none;fillColor=none;" vertex="1" parent="1">
                    <mxGeometry x="4079" y="790" width="470" height="170" as="geometry"/>
                </mxCell>
            </root>
        </mxGraphModel>
    </diagram>
</mxfile>
